<?xml version="1.0" encoding="utf-8"?>
<!-- Generator: Adobe Illustrator 18.1.1, SVG Export Plug-In . SVG Version: 6.00 Build 0)  -->
<svg version="1.1" id="Capa_1" xmlns="http://www.w3.org/2000/svg" xmlns:xlink="http://www.w3.org/1999/xlink" x="0px" y="0px"
	 viewBox="-7024 4190 124 124" enable-background="new -7024 4190 124 124" xml:space="preserve">
<g>
	<path fill="#454545" d="M-6936.3,4285.8l-1.8-0.6c0.1-1.3,0.1-2.6-0.1-3.9l1.7-0.8c1.1-0.5,1.5-1.7,1-2.8l-1-2.1
		c-0.5-1.1-1.7-1.5-2.8-1l-1.7,0.8c-0.8-1-1.8-1.9-2.9-2.6l0.6-1.8c0.4-1.1-0.2-2.3-1.3-2.7l-2.2-0.8c-1.1-0.4-2.3,0.2-2.7,1.3
		l-0.6,1.8c-1.3-0.1-2.6-0.1-3.9,0.1l-0.8-1.7c-0.5-1.1-1.7-1.5-2.8-1l-2.2,1c-1.1,0.5-1.5,1.7-1,2.8l0.8,1.7
		c-1,0.8-1.9,1.8-2.6,2.9l-1.8-0.6c-1.1-0.4-2.3,0.2-2.7,1.3l-0.8,2.2c-0.2,0.5-0.2,1.1,0.1,1.6c0.2,0.5,0.7,0.9,1.2,1.1l1.8,0.6
		c-0.1,1.3-0.1,2.6,0.1,3.9l-1.7,0.8c-1.1,0.5-1.5,1.7-1,2.8l1,2.2c0.5,1.1,1.7,1.5,2.8,1l1.7-0.8c0.8,1,1.8,1.9,2.9,2.6l-0.6,1.8
		c-0.2,0.5-0.2,1.1,0.1,1.6c0.2,0.5,0.7,0.9,1.2,1.1l2.2,0.8c0.5,0.2,1.1,0.2,1.6-0.1c0.5-0.2,0.9-0.7,1.1-1.2l0.6-1.8
		c1.3,0.1,2.6,0.1,3.9-0.1l0.8,1.7c0.5,1.1,1.7,1.5,2.8,1l2.1-1c1.1-0.5,1.5-1.7,1-2.8l-0.8-1.7c1-0.8,1.9-1.8,2.6-2.9l1.8,0.6
		c0.5,0.2,1.1,0.2,1.6-0.1c0.5-0.2,0.9-0.7,1.1-1.2l0.8-2.2C-6934.6,4287.4-6935.2,4286.2-6936.3,4285.8z M-6947.9,4291.3
		c-1.1,0.5-2.3,0.8-3.5,0.8c-3.3,0-6.2-1.9-7.6-4.9c-1.9-4.2-0.1-9.2,4.1-11.1c1.1-0.5,2.3-0.8,3.5-0.8c3.3,0,6.2,1.9,7.6,4.9
		C-6941.9,4284.4-6943.7,4289.4-6947.9,4291.3z M-6927.6,4192.6c-15.2,0-27.6,12.4-27.6,27.6c0,15.2,12.4,27.6,27.6,27.6
		c15.2,0,27.6-12.4,27.6-27.6C-6900,4205-6912.4,4192.6-6927.6,4192.6z M-6927.6,4244.5c-13.4,0-24.3-10.9-24.3-24.3
		c0-13.4,10.9-24.3,24.3-24.3c13.4,0,24.3,10.9,24.3,24.3C-6903.3,4233.6-6914.2,4244.5-6927.6,4244.5z M-6951,4256.1
		c-15.2,0-27.6,12.4-27.6,27.6c0,15.2,12.4,27.6,27.6,27.6c15.2,0,27.6-12.4,27.6-27.6C-6923.4,4268.5-6935.8,4256.1-6951,4256.1z
		 M-6951,4308.1c-13.4,0-24.3-10.9-24.3-24.3c0-13.4,10.9-24.3,24.3-24.3c13.4,0,24.3,10.9,24.3,24.3
		C-6926.7,4297.1-6937.6,4308.1-6951,4308.1z M-6936.8,4219.1l1.4,0.5v13.7c0,0.3-0.2,0.5-0.5,0.5h-6.2c-0.3,0-0.5-0.2-0.5-0.5v-9
		l5.1-5.3v0C-6937.3,4219.1-6936.8,4219.1-6936.8,4219.1z M-6924.3,4223.7v9.6c0,0.3-0.2,0.5-0.5,0.5h-6.2c-0.3,0-0.5-0.2-0.5-0.5
		v-9.6c0-0.3,0.2-0.5,0.5-0.5h6.2C-6924.5,4223.3-6924.3,4223.5-6924.3,4223.7z M-6913.9,4213.6
		C-6913.8,4213.6-6913.8,4213.6-6913.9,4213.6l0.1,19.7c0,0.3-0.2,0.5-0.5,0.5h-6.2c-0.3,0-0.5-0.2-0.5-0.5v-16.4l4.1-4.4l1.1,0.9
		c0.3,0.2,0.7,0.4,1.1,0.4C-6914.4,4213.8-6914.1,4213.8-6913.9,4213.6z M-6937.5,4217.4l-5.8,6.1c-0.2,0.2-0.4,0.3-0.7,0.3
		c-0.2,0-0.5-0.1-0.6-0.3c-0.4-0.4-0.4-0.9,0-1.3l6.2-6.5c0.2-0.3,0.6-0.3,1-0.2l10.2,3.8l8.9-9.7l-2.2-1.8
		c-0.1-0.1-0.1-0.1-0.1-0.2c0,0,0-0.1,0-0.1c0-0.1,0.2-0.2,0.3-0.2l5.3-0.5c0.2,0,0.4,0.1,0.4,0.3l0.5,5.3c0,0.1-0.1,0.3-0.2,0.3
		c-0.1,0.1-0.3,0-0.4,0l-2.2-1.8l-9.4,10.3c-0.2,0.3-0.6,0.4-1,0.2L-6937.5,4217.4z M-6935.7,4249.7l-3.6,6.8l-3.6-1.9l3.6-6.8
		L-6935.7,4249.7z M-6963.5,4226.3l-0.8-4l6.9-1.4l0.8,4L-6963.5,4226.3z M-6977.8,4258l3.3-2.4l4.2,5.6l-3.3,2.4L-6977.8,4258z
		 M-6990.9,4215.1c0,2.7-2.2,4.8-4.8,4.8c-2.7,0-4.8-2.2-4.8-4.8c0-2.7,2.2-4.8,4.8-4.8C-6993,4210.3-6990.9,4212.5-6990.9,4215.1z
		 M-6977.7,4218c0,2.2-1.8,4.1-4.1,4.1c-2.2,0-4.1-1.8-4.1-4.1s1.8-4.1,4.1-4.1C-6979.5,4213.9-6977.7,4215.7-6977.7,4218z
		 M-7005.6,4218c0,2.2-1.8,4.1-4.1,4.1s-4.1-1.8-4.1-4.1s1.8-4.1,4.1-4.1S-7005.6,4215.7-7005.6,4218z M-6967.3,4231.3
		c0-15.6-12.7-28.3-28.3-28.3s-28.3,12.7-28.3,28.3s12.7,28.3,28.3,28.3S-6967.3,4246.9-6967.3,4231.3z M-7009.9,4251.4l0-13
		c0.1,0,0.1,0,0.2,0c0,0,0,0,0,0v13c0,0.1,0,0.1,0,0.2C-7009.7,4251.5-7009.8,4251.4-7009.9,4251.4z M-7009.7,4231.3L-7009.7,4231.3
		l-1-1.3l1-6.6h0l1,6.6L-7009.7,4231.3z M-7007.1,4253.1c0.7-0.3,1.2-0.9,1.2-1.7l0-14.9c0.1,0.1,0.2,0.2,0.4,0.3
		c0.2,0.1,0.5,0.2,0.8,0.2c0.5,0,1-0.3,1.3-0.7c0.1,0.1,0.1,0.3,0.2,0.4c0.3,0.6,1,1,1.6,1c0.3,0,0.6-0.1,0.9-0.2
		c0.1-0.1,0.2-0.1,0.3-0.2l0,17.4c0,0.3,0.1,0.6,0.2,0.8C-7002.6,4255-7004.9,4254.2-7007.1,4253.1z M-7005,4231.6
		c-0.1,0.6-0.2,1.2-0.5,1.8v-4.9c0.2,0.3,0.3,0.7,0.4,1.1C-7005.1,4230.2-7005.1,4230.9-7005,4231.6z M-7000.6,4227.6v5.8
		C-7001.7,4230.9-7001.5,4229-7000.6,4227.6z M-6995.7,4255.9c-0.2,0-0.4,0-0.7,0c0.2-0.4,0.4-0.8,0.4-1.2l0-15.4c0.1,0,0.2,0,0.3,0
		c0,0,0,0,0.1,0v15.4c0,0.5,0.1,0.9,0.4,1.2C-6995.4,4255.9-6995.5,4255.9-6995.7,4255.9z M-6995.7,4231L-6995.7,4231l-1.2-1.6
		l1.2-7.8h0l1.2,7.8L-6995.7,4231z M-6991.4,4255.5c0.1-0.3,0.2-0.6,0.2-0.9l0-17.6c0.1,0.1,0.3,0.3,0.5,0.4
		c0.3,0.2,0.6,0.2,0.9,0.2c0.7,0,1.3-0.4,1.6-1c0.1-0.1,0.1-0.3,0.2-0.4c0.3,0.5,0.8,0.7,1.3,0.7c0.3,0,0.5-0.1,0.8-0.2
		c0.1,0,0.2-0.1,0.2-0.2l0,14.7c0,0.8,0.6,1.5,1.3,1.8C-6986.5,4254.3-6988.9,4255.1-6991.4,4255.5z M-6990.8,4233.4v-5.7
		C-6990,4229.1-6989.8,4230.9-6990.8,4233.4z M-6986.3,4229.6c0.1-0.4,0.2-0.7,0.4-1.1v4.9c-0.3-0.6-0.4-1.2-0.5-1.8
		C-6986.3,4230.9-6986.3,4230.2-6986.3,4229.6z M-6982,4251.8c0-0.1,0-0.3,0-0.4l0-13c0.1,0,0.1,0,0.2,0c0,0,0,0,0,0l0,13
		c0,0.1,0,0.1,0,0.2C-6981.8,4251.6-6981.9,4251.7-6982,4251.8z M-6981.7,4231.3L-6981.7,4231.3l-1-1.3l1-6.6h0l1,6.6
		L-6981.7,4231.3z M-6977.6,4236.8c0.2,0.1,0.5,0.2,0.8,0.2c0.6,0,1.1-0.3,1.4-0.8c4.5-8.2-1.6-11.9-3.6-13.2
		c-0.1,0-0.1-0.1-0.2-0.1c-0.5-0.3-1-0.5-1.5-0.7l-1,1l-1-1c0,0,0,0,0,0c-0.5,0.1-1,0.4-1.5,0.7c-0.1,0-0.1,0.1-0.2,0.1
		c-0.7,0.5-2.1,1.3-3.2,2.5c-1.4-2.3-3.7-3.7-4.8-4.4c-0.1,0-0.2-0.1-0.2-0.1c-0.5-0.4-1.1-0.6-1.8-0.8l-1.2,1.2l-1.2-1.2
		c0,0,0,0,0,0c-0.6,0.1-1.2,0.4-1.8,0.8c-0.1,0-0.2,0.1-0.2,0.1c-1.1,0.7-3.4,2.1-4.9,4.4c-1.1-1.3-2.4-2.1-3.2-2.5
		c-0.1,0-0.1-0.1-0.2-0.1c-0.5-0.3-1-0.5-1.5-0.7l-1,1l-1-1c0,0,0,0,0,0c-0.5,0.1-1,0.4-1.5,0.7c-0.1,0-0.1,0.1-0.2,0.1
		c-2,1.2-8.1,5-3.6,13.2c0.3,0.5,0.8,0.8,1.4,0.8c0.3,0,0.5-0.1,0.8-0.2c0.1,0,0.2-0.1,0.2-0.2l0,11.4c-4.1-4.4-6.7-10.3-6.7-16.8
		c0-13.6,11.1-24.6,24.6-24.6c13.6,0,24.6,11.1,24.6,24.6c0,6.6-2.6,12.7-6.9,17.1l0-11.9
		C-6977.8,4236.6-6977.7,4236.7-6977.6,4236.8z M-6977.6,4233.4v-4.9C-6976.9,4229.7-6976.7,4231.3-6977.6,4233.4z M-7013.8,4228.5
		v4.9C-7014.7,4231.3-7014.5,4229.7-7013.8,4228.5z"/>
</g>
</svg>
