<?xml version="1.0" encoding="utf-8"?>
<!-- Generator: Adobe Illustrator 18.1.1, SVG Export Plug-In . SVG Version: 6.00 Build 0)  -->
<svg version="1.1" id="Capa_1" xmlns="http://www.w3.org/2000/svg" xmlns:xlink="http://www.w3.org/1999/xlink" x="0px" y="0px"
	 viewBox="-6879 4044.6 414.3 414.3" enable-background="new -6879 4044.6 414.3 414.3" xml:space="preserve">
<g>
	<path d="M-6875.3,4455.3c2.4,2.4,5.6,3.7,8.8,3.7c3.2,0,6.4-1.2,8.8-3.7l185.8-185.8l185.8,185.8c2.4,2.4,5.6,3.7,8.8,3.7
		c3.2,0,6.4-1.2,8.8-3.7c4.9-4.9,4.9-12.8,0-17.7l-185.8-185.8l185.8-185.8c4.9-4.9,4.9-12.8,0-17.7c-4.9-4.9-12.8-4.9-17.7,0
		l-185.8,185.8l-185.8-185.8c-4.9-4.9-12.8-4.9-17.7,0c-4.9,4.9-4.9,12.8,0,17.7l185.8,185.8l-185.8,185.8
		C-6880.2,4442.5-6880.2,4450.4-6875.3,4455.3z"/>
</g>
</svg>
