<?xml version="1.0" encoding="utf-8"?>
<!-- Generator: Adobe Illustrator 18.1.1, SVG Export Plug-In . SVG Version: 6.00 Build 0)  -->
<svg version="1.1" id="Capa_1" xmlns="http://www.w3.org/2000/svg" xmlns:xlink="http://www.w3.org/1999/xlink" x="0px" y="0px"
	 viewBox="0 0 14173.2 8503.9" enable-background="new 0 0 14173.2 8503.9" xml:space="preserve">
<g>
	<g>
		<g>
			<path fill="#FFFFFF" d="M7086.6,0c-2348.2,0-4252,1903.8-4252,4252s1903.8,4252,4252,4252s4252-1903.8,4252-4252
				C11338.6,1903.3,9434.8,0,7086.6,0z M6023.6,6311.5h-1063V2591h1063V6311.5z M5525.1,2363c-275.3,0-498-223.2-498-498.5
				s223.2-498.5,498-498.5c275.3,0.5,498.5,223.8,498.5,498.5C6023.6,2139.8,5800.4,2363,5525.1,2363z M9744.1,6311.5h-1063V4011.2
				c0-269.5-77.1-458.1-408.2-458.1c-549,0-654.8,458.1-654.8,458.1v2300.3h-1063V2591h1063v355.6c152-116.4,531.5-355,1063-355
				c344.4,0,1063,206.2,1063,1452V6311.5L9744.1,6311.5z"/>
		</g>
	</g>
</g>
</svg>
