<?xml version="1.0" encoding="utf-8"?>
<!-- Generator: Adobe Illustrator 19.2.0, SVG Export Plug-In . SVG Version: 6.00 Build 0)  -->
<svg version="1.1" id="Layer_1" xmlns="http://www.w3.org/2000/svg" xmlns:xlink="http://www.w3.org/1999/xlink" x="0px" y="0px"
	 viewBox="0 0 14173.2 8503.9" style="enable-background:new 0 0 14173.2 8503.9;" xml:space="preserve">
<style type="text/css">
	.st0{display:none;}
	.st1{display:inline;}
	.st2{display:inline;fill:#F5F5F5;}
	.st3{fill:#FFFFFF;}
	.st4{fill:#19748C;}
	.st5{fill:#F5F5F5;}
	.st6{fill:#F5F5F5;stroke:#FFFFFF;stroke-width:6;stroke-miterlimit:10;}
	.st7{display:inline;fill:#19748C;}
</style>
<g id="Mini-logo1" class="st0">
	<path class="st1" d="M-3237.3,7666.6c57.2-11.4,137.3-22.9,228.8-22.9c114.4,0,205.9,22.9,263.1,80.1
		c45.8,45.8,80.1,114.4,80.1,194.5s-22.9,148.7-68.6,194.5c-68.6,68.6-171.6,103-286,103c-34.3,0-68.6,0-91.5-11.4v366.1h-114.4
		v-903.7h-11.5V7666.6z M-3122.9,8112.7c22.9,11.4,57.2,11.4,103,11.4c148.7,0,228.8-68.6,228.8-194.5c0-125.8-91.5-183-217.3-183
		c-57.2,0-91.5,0-114.4,11.4v354.7H-3122.9z"/>
	<path class="st1" d="M-1715.9,7266.2h-1681.6c-11.4,0-34.3,0-45.8,11.4c-205.9,57.2-1761.6,777.9-80.1,1693
		c22.9,11.4,57.2,22.9,91.5,22.9h1727.3c91.5,0,148.7-57.2,148.7-148.7v-22.9c0-91.5-68.6-160.1-160.1-160.1h-1727.3
		c-34.3,0-68.6-11.4-91.5-34.3c-183-125.8-880.8-594.8,80.1-1029.5c22.9-11.4,34.3-11.4,57.2-11.4h1681.6
		c91.5,0,160.1-68.6,160.1-160.1l0,0C-1544.3,7346.3-1624.4,7266.2-1715.9,7266.2z"/>
	<rect x="-2036.2" y="7277.7" class="st2" width="114.4" height="320.3"/>
	<g class="st1">
		<path d="M-2253.5,7769.5h-286v-103h686.4v103h-286v823.6H-2265v-823.6L-2253.5,7769.5L-2253.5,7769.5z"/>
	</g>
	<rect x="-2036.2" y="8673.2" class="st2" width="114.4" height="320.3"/>
</g>
<g id="Idea_3" class="st0">
	<path class="st1" d="M-4232.5,2095.7c57.2-11.4,137.3-22.9,228.8-22.9c114.4,0,205.9,22.9,263.1,80.1
		c45.8,45.8,80.1,114.4,80.1,194.5s-22.9,148.7-68.6,194.5c-68.6,68.6-171.6,103-286,103c-34.3,0-68.6,0-91.5-11.4v366.1H-4221
		v-903.7h-11.5V2095.7z M-4106.7,2541.8c22.9,11.4,57.2,11.4,103,11.4c148.7,0,228.8-68.6,228.8-194.5s-91.5-183-217.3-183
		c-57.2,0-91.5,0-114.4,11.4v354.7H-4106.7z"/>
	<path class="st1" d="M-3466.1,2702c0,160.1,103,228.8,228.8,228.8c91.5,0,137.3-11.4,183-34.3l22.9,91.5
		c-45.8,22.9-114.4,45.8-217.3,45.8c-205.9,0-331.7-137.3-331.7-331.7c0-205.9,114.4-354.6,308.9-354.6
		c217.3,0,274.5,194.5,274.5,308.9c0,22.9,0,45.8,0,57.2h-469L-3466.1,2702L-3466.1,2702z M-3111.5,2610.4
		c0-80.1-34.3-194.5-171.6-194.5c-125.8,0-171.6,114.4-183,194.5H-3111.5z"/>
	<path class="st1" d="M-2253.5,2667.6c0,240.2-171.6,354.6-331.7,354.6c-183,0-320.3-137.3-320.3-343.2
		c0-217.3,148.7-354.6,331.7-354.6C-2379.4,2324.5-2253.5,2461.7-2253.5,2667.6z M-2779.7,2679.1c0,148.7,80.1,251.7,205.9,251.7
		c114.4,0,205.9-103,205.9-263.1c0-114.4-57.2-251.7-194.5-251.7C-2711.1,2416-2779.7,2553.2-2779.7,2679.1z"/>
	<path class="st1" d="M-2093.4,2564.7c0-80.1,0-148.7,0-217.3h103v114.4l0,0c45.8-80.1,125.8-125.8,240.2-125.8
		c160.1,0,286,137.3,286,343.2c0,240.2-148.7,354.6-297.4,354.6c-91.5,0-160.1-34.3-205.9-103l0,0v366.1h-114.4v-732.1
		L-2093.4,2564.7L-2093.4,2564.7z M-1979,2736.3c0,22.9,0,34.3,0,45.8c22.9,80.1,91.5,137.3,183,137.3
		c125.8,0,205.9-103,205.9-251.7c0-137.3-68.6-251.7-194.5-251.7c-80.1,0-160.1,57.2-183,148.7c0,11.4-11.4,34.3-11.4,45.8V2736.3z"
		/>
	<path class="st1" d="M-1315.5,2038.5h125.8v972.3h-125.8V2038.5z"/>
	<path class="st1" d="M-926.6,2702c0,160.1,103,228.8,228.8,228.8c91.5,0,137.3-11.4,183-34.3l22.9,91.5
		c-45.8,22.9-114.4,45.8-217.3,45.8c-205.9,0-331.7-137.3-331.7-331.7c0-205.9,114.4-354.6,308.9-354.6
		c217.3,0,274.5,194.5,274.5,308.9c0,22.9,0,45.8,0,57.2h-469L-926.6,2702L-926.6,2702z M-572,2610.4c0-80.1-34.3-194.5-171.6-194.5
		c-125.8,0-171.6,114.4-183,194.5H-572z"/>
	<path class="st1" d="M-3557.6,3605.7c0-80.1,0-148.7,0-205.9h103v125.8l0,0c34.3-91.5,103-148.7,183-148.7c11.4,0,22.9,0,34.3,0
		v114.4c-11.4,0-22.9,0-45.8,0c-80.1,0-148.7,68.6-160.1,160.1c0,11.4,0,34.3,0,57.2v354.6h-114.4V3605.7z"/>
	<path class="st1" d="M-2745.4,4063.2l-11.4-80.1l0,0c-34.3,57.2-103,103-205.9,103c-137.3,0-205.9-91.5-205.9-194.5
		c0-160.1,137.3-251.7,400.4-251.7v-11.4c0-57.2-11.4-148.7-148.7-148.7c-57.2,0-125.8,22.9-171.6,45.8l-22.9-80.1
		c57.2-34.3,137.3-57.2,217.3-57.2c205.9,0,251.7,137.3,251.7,274.5v251.7c0,57.2,0,114.4,11.4,160.1h-114.4L-2745.4,4063.2
		L-2745.4,4063.2z M-2768.3,3731.5c-137.3,0-286,22.9-286,148.7c0,80.1,57.2,114.4,114.4,114.4c91.5,0,137.3-57.2,160.1-114.4
		c0-11.4,11.4-22.9,11.4-34.3v-114.4H-2768.3z"/>
	<path class="st1" d="M-1670.1,3216.7v194.5h171.6v91.5h-171.6v354.6c0,80.1,22.9,125.8,91.5,125.8c34.3,0,57.2,0,68.6-11.4v91.5
		c-22.9,11.4-57.2,11.4-103,11.4c-57.2,0-103-22.9-125.8-45.8c-34.3-34.3-45.8-91.5-45.8-171.6v-366.1h-103v-91.5h103v-160.1
		L-1670.1,3216.7z"/>
	<path class="st1" d="M-1235.4,3216.7c0,45.8-34.3,68.6-80.1,68.6s-68.6-34.3-68.6-68.6c0-45.8,34.3-80.1,80.1-80.1
		C-1258.3,3136.6-1235.4,3171-1235.4,3216.7z M-1361.3,4063.2v-663.5h125.8v663.5H-1361.3z"/>
	<path class="st1" d="M-446.1,3731.5c0,240.2-171.6,354.6-331.7,354.6c-183,0-320.3-137.3-320.3-343.2
		c0-217.3,148.7-354.6,331.7-354.6C-572,3388.3-446.1,3525.6-446.1,3731.5z M-972.3,3731.5c0,148.7,80.1,251.7,205.9,251.7
		c114.4,0,205.9-103,205.9-263.1c0-114.4-57.2-251.7-194.5-251.7C-903.7,3479.8-972.3,3605.7-972.3,3731.5z"/>
	<path class="st1" d="M-286,3582.8c0-68.6,0-125.8,0-183h103l11.4,114.4l0,0c34.3-68.6,114.4-125.8,217.3-125.8
		c91.5,0,240.2,57.2,240.2,286v400.4H148.7v-377.5c0-103-34.3-194.5-148.7-194.5c-80.1,0-137.3,57.2-160.1,125.8
		c0,11.4-11.4,34.3-11.4,57.2v400.4h-125.8v-503.3L-286,3582.8L-286,3582.8z"/>
	<g class="st1">
		<path d="M-11.4,1260.6h-4095.3c-34.3,0-57.2,0-91.5,11.4c-446.1,125.8-3855,1704.4-171.6,3694.9c57.2,34.3,125.8,57.2,194.5,57.2
			H22.9c194.5,0,320.3-125.8,320.3-320.3v-34.3c0-194.5-160.1-354.6-354.6-354.6h-4186.8c-68.6,0-148.7-22.9-205.9-68.6
			c-400.4-286-1910.4-1292.6,194.5-2253.5c34.3-22.9,80.1-22.9,125.8-22.9H-11.4c194.5,0,354.6-160.1,354.6-354.6l0,0
			C343.2,1420.8,183,1260.6-11.4,1260.6z"/>
		<rect x="-1246.9" y="1260.6" class="st3" width="251.7" height="709.2"/>
		<rect x="-1246.9" y="4314.9" class="st3" width="251.7" height="709.2"/>
	</g>
	<g class="st1">
		<path d="M-3946.5,3239.6h-286v-103h686.4v103h-286v823.6H-3958v-823.6H-3946.5z"/>
	</g>
	<g class="st1">
		<path d="M-2036.2,4040.3c-34.3,11.4-103,34.3-194.5,34.3c-205.9,0-331.7-137.3-331.7-343.2s137.3-354.6,354.6-354.6
			c68.6,0,137.3,22.9,171.6,34.3l-22.9,91.5c-34.3-11.4-68.6-34.3-137.3-34.3c-148.7,0-240.2,114.4-240.2,251.7
			c0,148.7,103,251.7,228.8,251.7c68.6,0,114.4-22.9,148.7-34.3L-2036.2,4040.3z"/>
	</g>
</g>
<g id="Idea2" class="st0">
	<path class="st1" d="M2596.7,1683.9c57.2-11.4,137.3-22.9,228.8-22.9c114.4,0,205.9,22.9,263.1,80.1
		c45.8,45.8,80.1,114.4,80.1,194.5s-22.9,148.7-68.6,194.5c-68.6,68.6-171.6,103-286,103c-34.3,0-68.6,0-91.5-11.4v366.1h-114.4
		v-903.7h-11.5V1683.9z M2722.5,2130c22.9,11.4,57.2,11.4,103,11.4c148.7,0,228.8-68.6,228.8-194.5s-91.5-183-217.3-183
		c-57.2,0-91.5,0-114.4,11.4V2130H2722.5z"/>
	<path class="st1" d="M3363.1,2290.1c0,160.1,103,228.8,228.8,228.8c91.5,0,137.3-11.4,183-34.3l22.9,91.5
		c-45.8,22.9-114.4,45.8-217.3,45.8c-205.9,0-331.7-137.3-331.7-331.7c0-205.9,114.4-354.6,308.9-354.6
		c217.3,0,274.5,194.5,274.5,308.9c0,22.9,0,45.8,0,57.2h-469L3363.1,2290.1L3363.1,2290.1z M3717.8,2198.6
		c0-80.1-34.3-194.5-171.6-194.5c-125.8,0-171.6,114.4-183,194.5H3717.8z"/>
	<path class="st1" d="M4575.7,2255.8c0,240.2-171.6,354.6-331.7,354.6c-183,0-320.3-137.3-320.3-343.2
		c0-217.3,148.7-354.6,331.7-354.6C4449.9,1912.6,4575.7,2049.9,4575.7,2255.8z M4049.5,2267.3c0,148.7,80.1,251.7,205.9,251.7
		c114.4,0,205.9-103,205.9-263.1c0-114.4-57.2-251.7-194.5-251.7C4118.1,2004.2,4049.5,2141.4,4049.5,2267.3z"/>
	<path class="st1" d="M4735.8,2152.9c0-80.1,0-148.7,0-217.3h103V2050l0,0c45.8-80.1,125.8-125.8,240.2-125.8
		c160.1,0,286,137.3,286,343.2c0,240.2-148.7,354.6-297.4,354.6c-91.5,0-160.1-34.3-205.9-103l0,0v366h-114.4v-732.1H4735.8z
		 M4850.2,2324.5c0,22.9,0,34.3,0,45.8c22.9,80.1,91.5,137.3,183,137.3c125.8,0,205.9-103,205.9-251.7
		c0-137.3-68.6-251.7-194.5-251.7c-80.1,0-160.1,57.2-183,148.7c0,11.4-11.4,34.3-11.4,45.8V2324.5z"/>
	<path class="st1" d="M5513.7,1615.2h125.8v972.3h-125.8V1615.2z"/>
	<path class="st1" d="M5902.7,2290.1c0,160.1,103,228.8,228.8,228.8c91.5,0,137.3-11.4,183-34.3l22.9,91.5
		c-45.8,22.9-114.4,45.8-217.3,45.8c-205.9,0-331.7-137.3-331.7-331.7c0-205.9,114.4-354.6,308.9-354.6
		c217.3,0,274.5,194.5,274.5,308.9c0,22.9,0,45.8,0,57.2h-469L5902.7,2290.1L5902.7,2290.1z M6257.3,2198.6
		c0-80.1-34.3-194.5-171.6-194.5c-125.8,0-171.6,114.4-183,194.5H6257.3z"/>
	<path class="st1" d="M4484.2,3537c0-80.1,0-148.7,0-205.9h103v125.8l0,0c34.3-91.5,103-148.7,183-148.7c11.4,0,22.9,0,34.3,0v114.4
		c-11.4,0-22.9,0-45.8,0c-80.1,0-148.7,68.6-160.1,160.1c0,11.4,0,34.3,0,57.2v354.6h-114.4V3537L4484.2,3537z"/>
	<path class="st1" d="M5296.4,3994.6l-11.4-80.1l0,0c-34.3,57.2-103,103-205.9,103c-137.3,0-205.9-91.5-205.9-194.5
		c0-160.1,137.3-251.7,400.4-251.7v-11.4c0-57.2-11.4-148.7-148.7-148.7c-57.2,0-125.8,22.9-171.6,45.8l-34.3-80.1
		c57.2-34.3,137.3-57.2,217.3-57.2c205.9,0,251.7,137.3,251.7,274.5v251.7c0,57.2,0,114.4,11.4,160.1h-103V3994.6z M5273.5,3651.4
		c-137.3,0-286,22.9-286,148.7c0,80.1,57.2,114.4,114.4,114.4c91.5,0,137.3-57.2,160.1-114.4c0-11.4,11.4-22.9,11.4-34.3v-114.4
		H5273.5z"/>
	<path class="st1" d="M6371.7,3136.6v194.5h171.6v91.5h-171.6v354.6c0,80.1,22.9,125.8,91.5,125.8c34.3,0,57.2,0,68.6-11.4v91.5
		c-22.9,11.4-57.2,11.4-103,11.4c-57.2,0-103-22.9-125.8-45.8c-34.3-34.3-45.8-91.5-45.8-171.6V3411h-103v-91.5h103v-160.1
		L6371.7,3136.6z"/>
	<path class="st1" d="M6806.4,3148.1c0,45.8-34.3,68.6-80.1,68.6c-45.8,0-68.6-34.3-68.6-68.6c0-45.8,34.3-80.1,80.1-80.1
		C6783.5,3068,6806.4,3102.3,6806.4,3148.1z M6680.5,3994.6v-663.5h125.8v663.5H6680.5L6680.5,3994.6z"/>
	<path class="st1" d="M7595.7,3662.8c0,240.2-171.6,354.6-331.7,354.6c-183,0-320.3-137.3-320.3-343.2
		c0-217.3,148.7-354.6,331.7-354.6C7469.8,3319.7,7595.7,3456.9,7595.7,3662.8z M7069.5,3662.8c0,148.7,80.1,251.7,205.9,251.7
		c114.4,0,205.9-103,205.9-263.1c0-114.4-57.2-251.7-194.5-251.7C7138.1,3411.2,7069.5,3537,7069.5,3662.8z"/>
	<path class="st1" d="M7755.8,3514.1c0-68.6,0-125.8,0-183h103l11.4,114.4l0,0c34.3-68.6,114.4-125.8,217.3-125.8
		c91.5,0,240.2,57.2,240.2,286V4006h-125.8v-377.5c0-103-34.3-194.5-148.7-194.5c-80.1,0-137.3,57.2-160.1,125.8
		c0,11.4-11.4,34.3-11.4,57.2v400.4h-125.8L7755.8,3514.1L7755.8,3514.1z"/>
	<path class="st1" d="M8156.2,2702h-1693c-11.4,0-34.3,0-45.8,11.4c-205.9,57.2-1761.6,777.9-80.1,1693
		c22.9,11.4,57.2,22.9,91.5,22.9h1727.3c91.5,0,148.7-57.2,148.7-148.7v-22.9c0-91.5-68.6-160.1-160.1-160.1H6428.9
		c-34.3,0-68.6-11.4-91.5-34.3c-183-125.8-880.8-594.8,80.1-1029.5c22.9-11.4,34.3-11.4,57.2-11.4h1670.1
		c91.5,0,160.1-68.6,160.1-160.1l0,0C8316.3,2770.6,8247.7,2702,8156.2,2702z"/>
	<rect x="7893.1" y="2702" class="st2" width="114.4" height="320.3"/>
	<rect x="7778.7" y="4097.5" class="st2" width="114.4" height="320.3"/>
	<g class="st1">
		<path d="M3980.9,3205.3h-286v-103h686.4v103h-286v823.6h-125.8v-823.6L3980.9,3205.3L3980.9,3205.3z"/>
	</g>
</g>
<g id="Idea1" class="st0">
	<path class="st1" d="M697.8,7632.3c57.2-11.4,137.3-22.9,228.8-22.9c114.4,0,205.9,22.9,263.1,80.1
		c45.8,45.8,80.1,114.4,80.1,194.5s-22.9,148.7-68.6,194.5c-68.6,68.6-171.6,103-286,103c-34.3,0-68.6,0-91.5-11.4V8536H709.2
		v-903.7H697.8z M823.6,8078.4c22.9,11.4,57.2,11.4,103,11.4c148.7,0,228.8-68.6,228.8-194.5c0-125.8-91.5-183-217.3-183
		c-57.2,0-91.5,0-114.4,11.4v354.7H823.6z"/>
	<path class="st1" d="M1464.2,8238.5c0,160.1,103,228.8,228.8,228.8c91.5,0,137.3-11.4,183-34.3l22.9,91.5
		c-45.8,22.9-114.4,45.8-217.3,45.8c-205.9,0-331.7-137.3-331.7-331.7c0-205.9,114.4-354.6,308.9-354.6
		c217.3,0,274.5,194.5,274.5,308.9c0,22.9,0,45.8,0,57.2h-469L1464.2,8238.5L1464.2,8238.5z M1818.8,8147
		c0-80.1-34.3-194.5-171.6-194.5c-125.8,0-171.6,114.4-183,194.5H1818.8z"/>
	<path class="st1" d="M2688.2,8204.2c0,240.2-171.6,354.6-331.7,354.6c-183,0-320.3-137.3-320.3-343.2
		c0-217.3,148.7-354.6,331.7-354.6C2551,7872.5,2688.2,8009.8,2688.2,8204.2z M2150.6,8215.7c0,148.7,80.1,251.7,205.9,251.7
		c114.4,0,205.9-103,205.9-263.1c0-114.4-57.2-251.7-194.5-251.7C2219.2,7952.6,2150.6,8089.8,2150.6,8215.7z"/>
	<path class="st1" d="M2836.9,8101.3c0-80.1,0-148.7,0-217.3h103v114.4l0,0c45.8-80.1,125.8-125.8,240.2-125.8
		c160.1,0,286,137.3,286,343.2c0,240.2-148.7,354.6-297.4,354.6c-91.5,0-160.1-34.3-205.9-103l0,0v366.1h-114.4v-732.1
		L2836.9,8101.3L2836.9,8101.3z M2951.3,8272.9c0,22.9,0,34.3,0,45.8c22.9,80.1,91.5,137.3,183,137.3c125.8,0,205.9-103,205.9-251.7
		c0-137.3-68.6-251.7-194.5-251.7c-80.1,0-160.1,57.2-183,148.7c0,11.4-11.4,34.3-11.4,45.8V8272.9L2951.3,8272.9z"/>
	<path class="st1" d="M3614.8,7575.1h125.8v972.3h-125.8V7575.1z"/>
	<path class="st1" d="M4003.7,8238.5c0,160.1,103,228.8,228.8,228.8c91.5,0,137.3-11.4,183-34.3l22.9,91.5
		c-45.8,22.9-114.4,45.8-217.3,45.8c-205.9,0-331.7-137.3-331.7-331.7c0-205.9,114.4-354.6,308.9-354.6
		c217.3,0,274.5,194.5,274.5,308.9c0,22.9,0,45.8,0,57.2h-469v-11.6H4003.7z M4358.4,8147c0-80.1-34.3-194.5-171.6-194.5
		c-125.8,0-171.6,114.4-183,194.5H4358.4z"/>
	<path class="st1" d="M4770.2,7689.5V7884h171.6v91.5h-171.6v354.6c0,80.1,22.9,125.8,91.5,125.8c34.3,0,57.2,0,68.6-11.4v91.5
		c-11.4,11.4-45.8,22.9-103,22.9s-103-22.9-125.8-45.8c-34.3-34.3-45.8-91.5-45.8-171.6v-366.1h-103v-91.5h103v-160.1L4770.2,7689.5
		z"/>
	<path class="st1" d="M5079,8089.8c0-80.1,0-148.7,0-205.9h103v125.8l0,0c34.3-91.5,103-148.7,183-148.7c11.4,0,22.9,0,34.3,0v114.4
		c-11.4,0-22.9,0-45.8,0c-80.1,0-148.7,68.6-160.1,160.1c0,11.4,0,34.3,0,57.2v354.6H5079V8089.8L5079,8089.8z"/>
	<path class="st1" d="M5891.2,8547.4l-11.4-80.1l0,0c-34.3,57.2-103,103-205.9,103c-137.3,0-205.9-91.5-205.9-194.5
		c0-160.1,137.3-251.7,400.4-251.7v-11.4c0-57.2-11.4-148.7-148.7-148.7c-57.2,0-125.8,22.9-171.6,45.8l-22.9-80.1
		c57.2-34.3,137.3-57.2,217.3-57.2c205.9,0,251.7,137.3,251.7,274.5v251.7c0,57.2,0,114.4,11.4,160.1h-114.4V8547.4z M5879.8,8204.2
		c-137.3,0-286,22.9-286,148.7c0,80.1,57.2,114.4,114.4,114.4c91.5,0,137.3-57.2,160.1-114.4c0-11.4,11.4-22.9,11.4-34.3v-114.4
		H5879.8z"/>
	<path class="st1" d="M6966.5,7689.5V7884h171.6v91.5h-171.6v354.6c0,80.1,22.9,125.8,91.5,125.8c34.3,0,57.2,0,68.6-11.4v91.5
		c-22.9,11.4-57.2,11.4-103,11.4c-57.2,0-103-22.9-125.8-45.8c-34.3-34.3-45.8-91.5-45.8-171.6v-366h-103v-91.5h103v-160.1
		L6966.5,7689.5z"/>
	<path class="st1" d="M7412.6,7700.9c0,45.8-34.3,68.6-80.1,68.6c-45.8,0-68.6-34.3-68.6-68.6c0-45.8,34.3-80.1,80.1-80.1
		C7378.3,7620.8,7412.6,7655.1,7412.6,7700.9z M7275.4,8547.4v-663.5h125.8v663.5H7275.4z"/>
	<path class="st1" d="M8190.5,8204.2c0,240.2-171.6,354.6-331.7,354.6c-183,0-320.3-137.3-320.3-343.2
		c0-217.3,148.7-354.6,331.7-354.6C8064.7,7872.5,8190.5,8009.8,8190.5,8204.2z M7664.3,8215.7c0,148.7,80.1,251.7,205.9,251.7
		c114.4,0,205.9-103,205.9-263.1c0-114.4-57.2-251.7-194.5-251.7C7732.9,7952.6,7664.3,8089.8,7664.3,8215.7z"/>
	<path class="st1" d="M8350.7,8067c0-68.6,0-125.8,0-183h103l11.4,114.4l0,0c34.3-68.6,114.4-125.8,217.3-125.8
		c91.5,0,240.2,57.2,240.2,286V8559h-125.8v-377.5c0-103-34.3-194.5-148.7-194.5c-80.1,0-137.3,57.2-160.1,125.8
		c0,11.4-11.4,34.3-11.4,57.2v400.4h-125.8V8067H8350.7z"/>
	<path class="st1" d="M8751,7243.3H7069.5c-11.4,0-34.3,0-45.8,11.4c-205.9,57.2-1761.6,777.9-80.1,1693
		c22.9,11.4,57.2,22.9,91.5,22.9h1727.3c91.5,0,148.7-57.2,148.7-148.7V8799c0-91.5-68.6-160.1-160.2-160.1H7023.7
		c-34.3,0-68.6-11.4-91.5-34.3c-183-125.8-880.8-594.8,80.1-1029.5c22.9-11.4,34.3-11.4,57.2-11.4h1670.1
		c91.5,0,160.1-68.6,160.1-160.1l0,0C8911.2,7323.4,8842.5,7243.3,8751,7243.3z"/>
	<rect x="8373.5" y="7243.3" class="st2" width="114.4" height="320.3"/>
	<rect x="8373.5" y="8650.4" class="st2" width="114.4" height="320.3"/>
</g>
<g id="Final">
	<g id="Final_norm">
		<path class="st4" d="M0,917.4c137.3-22.9,343.2-57.2,572-57.2c286,0,514.8,57.2,652,194.5c114.4,114.4,194.5,286,194.5,480.4
			c0,228.8-57.2,366.1-171.6,514.8c-171.6,137.3-423.3,228.8-709.2,228.8c-80.1,0-171.6,0-228.8-22.9v903.7H0V917.4z M286,2027
			c57.2,22.9,137.3,22.9,251.7,22.9c366.1,0,572-171.6,572-480.4S880.8,1123.3,572,1123.3c-148.7,0-228.8,0-286,22.9V2027L286,2027z
			"/>
		<path class="st5" d="M1876,2427.4c0,400.4,251.7,572,572,572c228.8,0,343.2-22.9,457.6-80.1l57.2,228.8
			c-114.4,57.2-286,114.4-537.6,114.4c-514.8,0-823.6-343.2-823.6-823.6c0-514.8,286-880.8,766.4-880.8
			c537.6,0,674.9,480.4,674.9,766.4c0,57.2,0,114.4,0,137.3H1876V2427.4z M2745.4,2198.6c0-194.5-80.1-480.4-423.3-480.4
			c-308.9,0-423.3,286-457.6,480.4H2745.4z"/>
		<path class="st5" d="M4907.4,2370.2c0,594.8-423.3,880.8-823.6,880.8c-457.6,0-789.3-343.2-789.3-846.5
			c0-537.6,366.1-880.8,823.6-880.8C4587.1,1512.3,4907.4,1855.4,4907.4,2370.2z M3603.4,2370.2c0,366.1,194.5,629.2,514.8,629.2
			c286,0,514.8-251.7,514.8-652c0-286-137.3-629.2-480.4-629.2C3740.6,1741.1,3603.4,2061.4,3603.4,2370.2z"/>
		<path class="st5" d="M5273.5,2084.2c0-194.5,0-366.1,0-537.6h251.7v286l0,0c114.4-194.5,308.9-308.9,594.8-308.9
			c400.4,0,709.2,343.2,709.2,846.5c0,594.8-366.1,880.8-732.1,880.8c-228.8,0-400.4-80.1-514.8-251.7l0,0V3903h-308.9
			L5273.5,2084.2L5273.5,2084.2z M5582.4,2541.8c0,57.2,0,80.1,0,114.4c57.2,194.5,228.8,343.2,457.6,343.2
			c308.9,0,514.8-251.7,514.8-629.2c0-343.2-171.6-629.2-480.4-629.2c-194.5,0-400.4,137.3-457.6,366.1c0,22.9-22.9,80.1-22.9,114.4
			L5582.4,2541.8L5582.4,2541.8z"/>
		<path class="st5" d="M7229.6,780.2h308.9v2413.7h-308.9V780.2z"/>
		<path class="st5" d="M8190.5,2427.4c0,400.4,251.7,572,572,572c228.8,0,343.2-22.9,457.6-80.1l57.2,228.8
			c-114.4,57.2-286,114.4-537.6,114.4c-514.8,0-823.6-343.2-823.6-823.6c0-514.8,286-880.8,766.4-880.8
			c537.6,0,674.9,480.4,674.9,766.4c0,57.2,0,114.4,0,137.3H8190.5V2427.4z M9071.3,2198.6c0-194.5-80.1-480.4-423.3-480.4
			c-308.9,0-423.3,286-457.6,480.4H9071.3z"/>
		<path class="st5" d="M4678.7,5538.9c0-194.5,0-366.1,0-514.8h251.7V5333l0,0c80.1-228.8,251.7-366.1,457.6-366.1
			c22.9,0,57.2,0,80.1,0v286c-22.9,0-57.2,0-114.4,0c-194.5,0-366.1,171.6-400.4,400.4c0,22.9,0,80.1,0,137.3v880.8h-286
			L4678.7,5538.9L4678.7,5538.9z"/>
		<path class="st5" d="M6692,6671.4l-22.9-228.8l0,0c-80.1,137.3-251.7,251.7-514.8,251.7c-343.2,0-514.8-228.8-514.8-480.4
			c0-400.4,343.2-629.2,995.2-629.2v-22.9c0-137.3-22.9-366.1-366.1-366.1c-137.3,0-308.9,57.2-423.3,114.4l-57.2-194.5
			c137.3-80.1,343.2-137.3,537.6-137.3c514.8,0,629.2,343.2,629.2,674.9v629.2c0,137.3,0,286,22.9,400.4L6692,6671.4L6692,6671.4z
			 M6634.8,5824.9c-343.2,0-709.2,57.2-709.2,366.1c0,194.5,137.3,286,286,286c228.8,0,343.2-137.3,400.4-286
			c0-22.9,22.9-57.2,22.9-80.1L6634.8,5824.9L6634.8,5824.9z"/>
		<path class="st5" d="M9323,4555.1v480.4h423.3v228.8H9323v880.8c0,194.5,57.2,308.9,228.8,308.9c80.1,0,137.3,0,171.6-22.9v228.8
			c-57.2,22.9-137.3,22.9-251.7,22.9c-137.3,0-251.7-57.2-308.9-114.4c-80.1-80.1-114.4-228.8-114.4-423.3v-903.7h-251.7V5047H9037
			v-400.4L9323,4555.1z"/>
		<path class="st5" d="M10432.6,4555.1c0,114.4-80.1,171.6-194.5,171.6s-171.6-91.5-171.6-171.6c0-114.4,80.1-194.5,194.5-194.5
			C10375.4,4383.5,10432.6,4463.6,10432.6,4555.1z M10089.4,6671.4V5035.6h308.9v1647.3h-308.9V6671.4z"/>
		<path class="st5" d="M12388.7,5824.9c0,594.8-423.3,880.8-823.6,880.8c-457.6,0-789.3-343.2-789.3-846.5
			c0-537.6,366.1-880.8,823.6-880.8C12079.8,4978.4,12388.7,5310.1,12388.7,5824.9z M11084.6,5859.2
			c0,366.1,194.5,629.2,514.8,629.2c286,0,514.8-251.7,514.8-652c0-286-137.3-629.2-480.4-629.2
			C11221.9,5207.1,11084.6,5538.9,11084.6,5859.2z"/>
		<path class="st5" d="M12754.8,5458.8c0-171.6,0-308.9,0-457.6h251.7l22.9,286l0,0c80.1-171.6,286-308.9,537.6-308.9
			c228.8,0,594.8,137.3,594.8,709.2v995.2h-308.9v-938c0-251.7-80.1-480.4-366.1-480.4c-194.5,0-343.2,137.3-400.4,308.9
			c0,22.9-22.9,80.1-22.9,137.3v995.2h-308.9V5458.8H12754.8z"/>
		<g>
			<path class="st4" d="M3431.8,4692.4h-709.2v-251.7H4427v251.7h-709.2v2036.2h-308.9V4692.4H3431.8z"/>
		</g>
		<path class="st4" d="M13818.6,4234.8c194.5,0,343.2-183,343.2-400.4s-160.1-400.4-343.2-400.4l0,0h-4244
			c-22.9,0-80.1,0-114.4,22.9c-514.8,137.3-4369.8,1921.8-171.6,4198.2c57.2,22.9,137.3,57.2,228.8,57.2h4244
			c228.8,0,411.8-183,411.8-411.8l0,0c0-228.8-183-411.8-411.8-411.8H9471.7c-80.1,0-171.6-22.9-228.8-80.1
			c-457.6-308.9-2184.9-1475.7,194.5-2551c57.2-22.9,80.1-22.9,137.3-22.9h4266.8"/>
		<rect x="13120.8" y="6795.6" class="st6" width="286" height="966.8"/>
		<rect x="13120.8" y="3345.3" class="st6" width="286" height="951.3"/>
	</g>
	<g id="Inverted" class="st0">
		<rect x="-36697.1" y="-5019.5" class="st7" width="27557.2" height="17833.8"/>
		<g id="Idea2_1_" class="st1">
			<path class="st3" d="M-29867.9,562.8c137.3-22.9,343.2-57.2,572-57.2c286,0,514.8,57.2,652,194.5
				c114.4,114.4,194.5,286,194.5,480.4c0,228.8-57.2,366.1-171.6,514.8c-171.6,137.3-423.3,228.8-709.2,228.8
				c-80.1,0-171.6,0-228.8-22.9v903.7h-308.9V562.8L-29867.9,562.8z M-29593.3,1672.4c57.2,22.9,137.3,22.9,251.7,22.9
				c366.1,0,572-171.6,572-480.4s-228.8-457.6-537.6-457.6c-137.3,0-228.8,0-286,22.9L-29593.3,1672.4L-29593.3,1672.4z"/>
			<path class="st5" d="M-28003.3,2072.8c0,400.4,251.7,572,572,572c228.8,0,343.2-22.9,457.6-80.1l57.2,228.8
				c-114.4,57.2-286,114.4-537.6,114.4c-514.8,0-823.6-343.2-823.6-823.6c0-514.8,286-880.8,766.4-880.8
				c537.6,0,674.9,480.4,674.9,766.4c0,57.2,0,114.4,0,137.3h-1166.8L-28003.3,2072.8L-28003.3,2072.8z M-27122.5,1844
				c0-194.5-80.1-480.4-423.3-480.4c-308.9,0-423.3,286-457.6,480.4H-27122.5z"/>
			<path class="st5" d="M-24971.9,2015.6c0,594.8-423.3,880.8-823.6,880.8c-457.6,0-789.3-343.2-789.3-846.5
				c0-537.6,366.1-880.8,823.6-880.8C-25280.7,1157.7-24971.9,1500.8-24971.9,2015.6z M-26276,2015.6
				c0,366.1,194.5,629.2,514.8,629.2c286,0,514.8-251.7,514.8-652c0-286-137.3-629.2-480.4-629.2
				C-26127.2,1386.4-26276,1706.7-26276,2015.6z"/>
			<path class="st5" d="M-24605.8,1729.6c0-194.5,0-366.1,0-537.6h251.7v286l0,0c114.4-194.5,308.9-308.9,594.8-308.9
				c400.4,0,709.2,343.2,709.2,846.5c0,594.8-366.1,880.8-732.1,880.8c-228.8,0-400.4-80.1-514.8-251.7l0,0v903.7h-286V1729.6
				H-24605.8z M-24285.5,2187.2c0,57.2,0,80.1,0,114.4c57.2,194.5,228.8,343.2,457.6,343.2c308.9,0,514.8-251.7,514.8-629.2
				c0-343.2-171.6-629.2-480.4-629.2c-194.5,0-400.4,137.3-457.6,366.1c0,22.9-22.9,80.1-22.9,114.4v320.3H-24285.5z"/>
			<path class="st5" d="M-22649.7,425.5h308.9v2413.7h-308.9V425.5z"/>
			<path class="st5" d="M-21677.4,2072.8c0,400.4,251.7,572,572,572c228.8,0,343.2-22.9,457.6-80.1l57.2,228.8
				c-114.4,57.2-286,114.4-537.6,114.4c-514.8,0-823.6-343.2-823.6-823.6c0-514.8,286-880.8,766.4-880.8
				c537.6,0,674.9,480.4,674.9,766.4c0,57.2,0,114.4,0,137.3h-1166.8L-21677.4,2072.8L-21677.4,2072.8z M-20808,1844
				c0-194.5-80.1-480.4-423.3-480.4c-308.9,0-423.3,286-457.6,480.4H-20808z"/>
			<path class="st5" d="M-25200.7,5184.3c0-194.5,0-366.1,0-514.8h251.7v308.9l0,0c80.1-228.8,251.7-366.1,457.6-366.1
				c22.9,0,57.2,0,80.1,0v286c-22.9,0-57.2,0-114.4,0c-194.5,0-366.1,171.6-400.4,400.4c0,22.9,0,80.1,0,137.3v880.8h-286
				L-25200.7,5184.3L-25200.7,5184.3z"/>
			<path class="st5" d="M-23187.4,6316.8l-22.9-228.8l0,0c-80.1,137.3-251.7,251.7-514.8,251.7c-343.2,0-514.8-228.8-514.8-480.4
				c0-400.4,343.2-629.2,995.2-629.2v-22.9c0-137.3-22.9-366.1-366.1-366.1c-137.3,0-308.9,57.2-423.3,114.4l-57.2-194.5
				c137.3-80.1,343.2-137.3,537.6-137.3c514.8,0,629.2,343.2,629.2,674.9v629.2c0,137.3,0,286,22.9,400.4L-23187.4,6316.8
				L-23187.4,6316.8z M-23244.6,5470.2c-343.2,0-709.2,57.2-709.2,366.1c0,194.5,137.3,286,286,286c228.8,0,343.2-137.3,400.4-286
				c0-22.9,22.9-57.2,22.9-80.1v-286H-23244.6z"/>
			<path class="st5" d="M-20544.9,4200.5v480.4h423.3v228.8h-423.3v880.8c0,194.5,57.2,308.9,228.8,308.9c80.1,0,137.3,0,171.6-22.9
				v228.8c-57.2,22.9-137.3,22.9-251.7,22.9c-137.3,0-251.7-57.2-308.9-114.4c-80.1-80.1-114.4-228.8-114.4-423.3v-903.7h-251.7
				v-194.5h251.7V4292L-20544.9,4200.5z"/>
			<path class="st5" d="M-19446.7,4200.5c0,114.4-80.1,171.6-194.5,171.6s-171.6-80.1-171.6-171.6c0-114.4,80.1-194.5,194.5-194.5
				C-19503.9,4028.9-19446.7,4109-19446.7,4200.5z M-19778.5,6316.8V4680.9h308.9v1647.3h-308.9V6316.8z"/>
			<path class="st5" d="M-17490.6,5470.2c0,594.8-423.3,880.8-823.6,880.8c-457.6,0-789.3-343.2-789.3-846.5
				c0-537.6,366.1-880.8,823.6-880.8C-17799.5,4623.7-17490.6,4955.5-17490.6,5470.2z M-18794.7,5504.6
				c0,366.1,194.5,629.2,514.8,629.2c286,0,514.8-251.7,514.8-652c0-286-137.3-629.2-480.4-629.2
				C-18646,4852.5-18794.7,5184.3-18794.7,5504.6z"/>
			<path class="st5" d="M-17113.1,5104.2c0-171.6,0-308.9,0-457.6h251.7l22.9,286l0,0c80.1-171.6,286-308.9,537.6-308.9
				c228.8,0,594.8,137.3,594.8,709.2v995.2h-308.9v-938c0-251.7-80.1-480.4-366.1-480.4c-194.5,0-343.2,137.3-400.4,308.9
				c0,22.9-22.9,80.1-22.9,137.3v995.2h-308.9V5104.2H-17113.1z"/>
			<g>
				<path class="st3" d="M-26447.5,4337.8h-709.2v-251.7h1704.4v251.7h-709.2V6374h-308.9V4337.8H-26447.5z"/>
			</g>
			<path class="st3" d="M-16049.3,3880.2c194.5,0,343.2-183,343.2-400.4c0-217.3-160.1-400.4-343.2-400.4l0,0h-4244
				c-22.9,0-80.1,0-114.4,22.9c-514.8,137.3-4369.8,1921.8-171.6,4198.2c57.2,22.9,137.3,57.2,228.8,57.2h4244
				c228.8,0,411.8-183,411.8-411.8l0,0c0-228.8-183-411.8-411.8-411.8h-4289.7c-80.1,0-171.6-22.9-228.8-80.1
				c-457.6-308.9-2184.9-1475.7,194.5-2551c57.2-22.9,80.1-22.9,137.3-22.9h4266.8"/>
			<rect x="-16747.1" y="6545.5" class="st4" width="286" height="823.6"/>
			<rect x="-16747.1" y="3090.9" class="st4" width="286" height="789.3"/>
		</g>
	</g>
</g>
</svg>
