<?xml version="1.0" encoding="utf-8"?>
<!-- Generator: Adobe Illustrator 18.1.1, SVG Export Plug-In . SVG Version: 6.00 Build 0)  -->
<svg version="1.1" id="Capa_1" xmlns="http://www.w3.org/2000/svg" xmlns:xlink="http://www.w3.org/1999/xlink" x="0px" y="0px"
	 viewBox="-4235.2 4608 8479.6 7733.3" enable-background="new -4235.2 4608 8479.6 7733.3" xml:space="preserve">
<g>
	<g>
		<path fill="#454545" d="M1345.4,10109h-2604.3c-478.3,0-876.9,398.6-876.9,876.9v1355.3h4331.6V10986
			C2222.3,10507.7,1823.7,10109,1345.4,10109z"/>
		<path fill="#454545" d="M43.2,7132.6c689.8,0,1249.1,559.3,1249.1,1249.1S733,9630.8,43.2,9630.8s-1249.1-559.3-1249.1-1249.1
			S-646.6,7132.6,43.2,7132.6z"/>
		<path fill="#454545" d="M-1843.6,6734c0-265.7-212.5-478.3-478.3-478.3h-1435c-265.7,0-478.3,212.5-478.3,478.3v744h2391.7v-744
			H-1843.6z"/>
		<path fill="#454545" d="M-3039.5,4608c381.6,0,691,309.3,691,691s-309.3,691-691,691s-691-309.3-691-691S-3421.1,4608-3039.5,4608
			z"/>
		<path fill="#454545" d="M3790.3,6255.7h-1435c-265.7,0-478.3,212.5-478.3,478.3v744h2365.1v-744
			C4268.6,6468.2,4056.1,6255.7,3790.3,6255.7z"/>
		<path fill="#454545" d="M3072.7,4608c381.6,0,691,309.3,691,691s-309.3,691-691,691s-691-309.3-691-691S2691.1,4608,3072.7,4608z"
			/>
		<path fill="#454545" d="M-1019.8,6308.8h2205.7c159.5,0,265.7-132.9,265.7-265.7c0-159.5-132.9-265.7-265.7-265.7h-2205.7
			c-159.5,0-265.7,132.9-265.7,265.7C-1285.5,6202.5-1152.6,6308.8-1019.8,6308.8z"/>
		<path fill="#454545" d="M-1896.8,9790.1c53.2,0,106.3-26.6,159.5-53.2c132.9-79.7,159.5-265.7,53.2-372l-1009.8-1381.9
			c-79.7-132.9-265.7-159.5-372-53.2c-132.9,79.7-159.5,265.7-53.2,372l1009.8,1381.9C-2056.2,9763.5-1976.5,9790.1-1896.8,9790.1z"
			/>
		<path fill="#454545" d="M2913.3,7956.5c-132.9-79.7-292.3-53.2-372,79.7l-876.9,1355.3c-79.7,132.9-53.2,292.3,79.7,372
			c53.2,26.6,106.3,53.2,159.5,53.2c79.7,0,186.1-53.2,239.1-132.9l876.9-1355.3C3099.3,8195.6,3046.1,8036.1,2913.3,7956.5z"/>
	</g>
</g>
</svg>
