<?xml version="1.0" encoding="utf-8"?>
<!-- Generator: Adobe Illustrator 18.1.1, SVG Export Plug-In . SVG Version: 6.00 Build 0)  -->
<svg version="1.1" id="Capa_1" xmlns="http://www.w3.org/2000/svg" xmlns:xlink="http://www.w3.org/1999/xlink" x="0px" y="0px"
	 viewBox="-6780 3945.9 612 612" enable-background="new -6780 3945.9 612 612" xml:space="preserve">
<g>
	<path fill="#FFFFFF" d="M-6168,4251.9c0-169-137-306-306-306c-169,0-306,137-306,306c0,169,137,306,306,306
		C-6305,4557.9-6168,4420.9-6168,4251.9z M-6638.8,4360.7c5.3,0.7,10.7,1,16.1,1c31.7,0.1,60.8-11.4,84-30.6
		c-29.6-0.7-54.6-21.6-63.1-50.3c4.1,0.9,8.4,1.4,12.7,1.4c6.2,0,12.1-0.8,17.8-2.4c-30.9-6.8-54.2-36.2-54.2-71.2
		c0-0.3,0-0.6,0-0.9c9.1,5.5,19.5,8.8,30.6,9.3c-18.1-13.1-30-35.4-30-60.4c0-13.2,3.3-25.6,9.2-36.2c33.4,44.1,83.2,73.4,139.3,77
		c-1.2-5.3-1.8-10.7-1.8-16.3c0-39.5,30.3-71.1,67.6-70.5c19.4,0.3,37,9.3,49.4,23.3c15.4-2.9,29.9-8.6,42.9-16.6
		c-5,16.5-15.8,30.2-29.7,38.8c13.7-1.5,26.7-5.1,38.8-10.6c-9.1,14.1-20.5,26.4-33.7,36.3c0.1,3.1,0.2,6.1,0.2,9.2
		c0,93.9-68,202.1-192.4,202C-6573.3,4393.2-6608.9,4381.2-6638.8,4360.7z"/>
</g>
</svg>
