<?xml version="1.0" encoding="iso-8859-1"?>
<!-- Generator: Adobe Illustrator 16.0.0, SVG Export Plug-In . SVG Version: 6.00 Build 0)  -->
<!DOCTYPE svg PUBLIC "-//W3C//DTD SVG 1.1//EN" "http://www.w3.org/Graphics/SVG/1.1/DTD/svg11.dtd">
<svg version="1.1" id="Capa_1" xmlns="http://www.w3.org/2000/svg" xmlns:xlink="http://www.w3.org/1999/xlink" x="0px" y="0px"
	 width="123.98px" height="123.98px" viewBox="0 0 123.98 123.98" style="enable-background:new 0 0 123.98 123.98;"
	 xml:space="preserve">
<g>
	<path d="M87.725,95.814l-1.758-0.646c0.139-1.283,0.092-2.59-0.148-3.889l1.697-0.783c1.061-0.485,1.524-1.748,1.037-2.809
		l-0.99-2.15c-0.488-1.06-1.748-1.525-2.807-1.035l-1.699,0.781c-0.83-1.029-1.793-1.91-2.857-2.641l0.648-1.756
		c0.404-1.096-0.157-2.314-1.252-2.718l-2.222-0.822c-1.061-0.392-2.327,0.192-2.719,1.251l-0.647,1.76
		c-1.281-0.139-2.588-0.094-3.888,0.146l-0.782-1.696c-0.488-1.062-1.748-1.526-2.808-1.038l-2.153,0.991
		c-1.06,0.487-1.523,1.748-1.035,2.81l0.781,1.696c-1.027,0.83-1.912,1.794-2.64,2.858l-1.755-0.648
		c-1.059-0.393-2.328,0.189-2.719,1.251l-0.821,2.224c-0.195,0.531-0.173,1.105,0.063,1.619c0.239,0.514,0.66,0.904,1.189,1.098
		l1.757,0.65c-0.138,1.28-0.094,2.59,0.148,3.889l-1.698,0.781c-1.061,0.488-1.525,1.746-1.037,2.806l0.991,2.153
		c0.488,1.059,1.748,1.524,2.807,1.035l1.699-0.781c0.83,1.029,1.794,1.912,2.859,2.64l-0.649,1.756
		c-0.197,0.53-0.175,1.104,0.063,1.619c0.235,0.513,0.657,0.903,1.188,1.101l2.224,0.82c0.529,0.195,1.104,0.173,1.619-0.062
		s0.903-0.66,1.099-1.188l0.648-1.759c1.281,0.14,2.588,0.093,3.889-0.146l0.781,1.696c0.488,1.06,1.749,1.524,2.809,1.036
		l2.15-0.991c1.061-0.487,1.525-1.746,1.037-2.81l-0.782-1.694c1.028-0.832,1.913-1.796,2.638-2.858l1.759,0.648
		c0.53,0.195,1.104,0.173,1.62-0.062c0.513-0.234,0.902-0.66,1.098-1.188l0.82-2.224C89.381,97.439,88.818,96.219,87.725,95.814z
		 M76.083,101.344c-1.108,0.51-2.286,0.768-3.499,0.768c-3.258,0-6.242-1.91-7.605-4.867c-1.93-4.192-0.09-9.174,4.1-11.104
		c1.109-0.512,2.285-0.77,3.498-0.77c3.257,0,6.244,1.91,7.607,4.867C82.112,94.431,80.274,99.412,76.083,101.344z M96.381,2.635
		c-15.218,0-27.598,12.38-27.598,27.598c0,15.219,12.38,27.599,27.598,27.599c15.219,0,27.6-12.38,27.6-27.599
		C123.98,15.014,111.6,2.635,96.381,2.635z M96.381,54.576c-13.422,0-24.343-10.922-24.343-24.344
		c0-13.422,10.921-24.343,24.343-24.343c13.424,0,24.342,10.921,24.342,24.343C120.723,43.654,109.803,54.576,96.381,54.576z
		 M72.965,66.148c-15.219,0-27.6,12.381-27.6,27.598c0,15.22,12.381,27.6,27.6,27.6c15.217,0,27.599-12.38,27.599-27.6
		C100.563,78.529,88.182,66.148,72.965,66.148z M72.965,118.091c-13.423,0-24.344-10.922-24.344-24.345
		c0-13.422,10.921-24.342,24.344-24.342c13.422,0,24.342,10.92,24.342,24.342C97.307,107.169,86.387,118.091,72.965,118.091z
		 M87.246,29.151l1.43,0.526V43.42c0,0.254-0.207,0.459-0.457,0.459h-6.196c-0.253,0-0.457-0.205-0.457-0.459v-8.958l5.103-5.312
		v0.001H87.246z M99.746,33.772v9.647c0,0.254-0.206,0.459-0.457,0.459h-6.195c-0.254,0-0.459-0.205-0.459-0.459v-9.647
		c0-0.251,0.207-0.456,0.459-0.456h6.195C99.541,33.316,99.746,33.521,99.746,33.772z M110.135,23.683
		c0.026-0.015,0.051-0.031,0.074-0.047V43.42c0,0.254-0.205,0.459-0.457,0.459h-6.195c-0.254,0-0.457-0.205-0.457-0.459V26.986
		l4.07-4.441l1.127,0.94c0.299,0.249,0.676,0.389,1.066,0.389C109.631,23.874,109.895,23.806,110.135,23.683z M86.542,27.428
		l-5.831,6.067c-0.181,0.187-0.421,0.283-0.66,0.283c-0.229,0-0.457-0.085-0.635-0.256c-0.363-0.351-0.375-0.928-0.025-1.291
		l6.248-6.503c0.25-0.261,0.633-0.349,0.974-0.225l10.192,3.751l8.927-9.738l-2.204-1.842c-0.072-0.059-0.115-0.144-0.123-0.233
		c-0.004-0.046,0-0.093,0.014-0.135c0.043-0.133,0.161-0.228,0.299-0.241l5.33-0.476c0.19-0.017,0.358,0.123,0.377,0.313
		l0.477,5.329c0.012,0.14-0.061,0.273-0.186,0.337c-0.123,0.064-0.273,0.048-0.382-0.041l-2.198-1.838l-9.397,10.252
		c-0.25,0.272-0.64,0.367-0.989,0.238L86.542,27.428z M88.274,59.743l-3.556,6.787l-3.603-1.889l3.556-6.786L88.274,59.743z
		 M60.45,36.349l-0.797-3.99l6.93-1.384l0.798,3.99L60.45,36.349z M46.178,68.046l3.254-2.445l4.246,5.649l-3.254,2.445
		L46.178,68.046z M33.114,25.172c0,2.66-2.157,4.817-4.817,4.817c-2.66,0-4.817-2.157-4.817-4.817c0-2.66,2.157-4.817,4.817-4.817
		C30.957,20.355,33.114,22.512,33.114,25.172z M46.332,27.994c0,2.249-1.823,4.072-4.072,4.072s-4.072-1.823-4.072-4.072
		s1.823-4.072,4.072-4.072S46.332,25.745,46.332,27.994z M18.398,27.994c0,2.249-1.823,4.072-4.072,4.072s-4.072-1.823-4.072-4.072
		s1.823-4.072,4.072-4.072S18.398,25.745,18.398,27.994z M56.674,41.303c0-15.625-12.712-28.337-28.337-28.337S0,25.678,0,41.303
		S12.712,69.64,28.337,69.64S56.674,56.928,56.674,41.303z M14.105,61.395l-0.001-12.98c0.074,0.004,0.148,0.011,0.223,0.011
		c0.015,0,0.029-0.003,0.043-0.003v12.985c0,0.064,0.013,0.125,0.019,0.188C14.293,61.53,14.2,61.462,14.105,61.395z M14.336,41.383
		h-0.019l-0.981-1.343l0.981-6.564h0.019l0.981,6.564L14.336,41.383z M16.943,63.136c0.681-0.278,1.163-0.947,1.163-1.729
		l0.001-14.879c0.114,0.123,0.25,0.232,0.407,0.317c0.24,0.132,0.498,0.192,0.753,0.192c0.522,0,1.026-0.261,1.324-0.722
		c0.071,0.137,0.134,0.27,0.209,0.408c0.339,0.623,0.981,0.978,1.645,0.978c0.301,0,0.607-0.074,0.892-0.229
		c0.099-0.054,0.19-0.116,0.274-0.185l0.001,17.411c0,0.287,0.06,0.559,0.159,0.809C21.352,65.053,19.058,64.244,16.943,63.136z
		 M19.01,41.61c-0.083,0.552-0.25,1.15-0.516,1.804v-4.853c0.19,0.332,0.339,0.69,0.439,1.079
		C18.892,40.259,18.916,40.915,19.01,41.61z M23.366,37.662v5.764C22.344,40.917,22.547,39.087,23.366,37.662z M28.337,65.939
		c-0.225,0-0.448-0.011-0.672-0.018c0.234-0.352,0.37-0.771,0.37-1.223l-0.001-15.372c0.087,0.003,0.175,0.011,0.263,0.011
		c0.017,0,0.034-0.001,0.052-0.001v15.361c0,0.455,0.137,0.879,0.374,1.23C28.594,65.931,28.466,65.939,28.337,65.939z
		 M28.308,41.011h-0.022l-1.163-1.59l1.163-7.766h0.022l1.162,7.766L28.308,41.011z M32.594,65.562
		c0.113-0.265,0.175-0.557,0.175-0.863l0.001-17.602c0.135,0.146,0.296,0.274,0.481,0.376c0.284,0.154,0.59,0.229,0.892,0.229
		c0.664,0,1.306-0.354,1.646-0.978c0.074-0.137,0.136-0.268,0.206-0.401c0.299,0.456,0.8,0.715,1.32,0.715
		c0.254,0,0.514-0.061,0.754-0.192c0.082-0.045,0.159-0.098,0.231-0.156l0.002,14.718c0,0.843,0.561,1.548,1.329,1.779
		C37.453,64.316,35.088,65.129,32.594,65.562z M33.228,43.413v-5.74C34.042,39.093,34.242,40.916,33.228,43.413z M37.654,39.619
		c0.101-0.383,0.25-0.737,0.438-1.064v4.87c-0.264-0.649-0.43-1.243-0.516-1.79C37.674,40.922,37.696,40.25,37.654,39.619z
		 M41.997,61.795c0.026-0.125,0.041-0.254,0.041-0.387l-0.001-12.993c0.074,0.004,0.148,0.011,0.223,0.011
		c0.014,0,0.028-0.003,0.043-0.003l-0.001,12.985c0,0.057,0.012,0.109,0.017,0.164C42.212,61.646,42.106,61.721,41.997,61.795z
		 M42.269,41.383H42.25l-0.983-1.343l0.983-6.564h0.019l0.981,6.564L42.269,41.383z M46.447,46.846
		c0.241,0.132,0.499,0.192,0.754,0.192c0.56,0,1.103-0.298,1.389-0.826c4.461-8.197-1.623-11.93-3.622-13.154
		c-0.069-0.042-0.141-0.073-0.211-0.103c-0.454-0.304-0.963-0.526-1.482-0.653l-1.014,1.021l-0.985-1.033
		c-0.003,0.002-0.007,0.002-0.011,0.003c-0.53,0.127-1.049,0.354-1.511,0.664c-0.071,0.03-0.142,0.061-0.208,0.102
		c-0.749,0.459-2.069,1.268-3.195,2.531c-1.447-2.338-3.709-3.729-4.849-4.43c-0.081-0.049-0.166-0.084-0.25-0.121
		c-0.537-0.357-1.139-0.621-1.754-0.771l-1.2,1.208l-1.164-1.222c-0.004,0.002-0.008,0.002-0.012,0.003
		c-0.627,0.149-1.243,0.419-1.788,0.785c-0.083,0.036-0.167,0.07-0.246,0.118c-1.142,0.701-3.407,2.094-4.854,4.436
		c-1.126-1.266-2.449-2.078-3.199-2.537c-0.069-0.042-0.14-0.073-0.211-0.103c-0.453-0.304-0.962-0.526-1.482-0.653l-1.015,1.021
		l-0.984-1.034c-0.003,0.002-0.006,0.002-0.011,0.003c-0.529,0.127-1.049,0.354-1.511,0.664c-0.069,0.03-0.142,0.061-0.208,0.102
		c-1.999,1.225-8.083,4.957-3.622,13.154c0.286,0.528,0.828,0.826,1.389,0.826c0.255,0,0.515-0.061,0.755-0.192
		c0.083-0.045,0.16-0.098,0.231-0.156l0.001,11.442c-4.131-4.408-6.668-10.327-6.668-16.83c0-13.586,11.052-24.638,24.638-24.638
		c13.585,0,24.637,11.052,24.637,24.638c0,6.643-2.647,12.674-6.935,17.109l0.001-11.883C46.155,46.652,46.29,46.761,46.447,46.846z
		 M46.428,43.414v-4.853C47.115,39.762,47.284,41.303,46.428,43.414z M10.158,38.554v4.87C9.295,41.303,9.465,39.757,10.158,38.554z
		"/>
</g>
<g>
</g>
<g>
</g>
<g>
</g>
<g>
</g>
<g>
</g>
<g>
</g>
<g>
</g>
<g>
</g>
<g>
</g>
<g>
</g>
<g>
</g>
<g>
</g>
<g>
</g>
<g>
</g>
<g>
</g>
</svg>
