<?xml version="1.0" encoding="utf-8"?>
<!-- Generator: Adobe Illustrator 18.1.1, SVG Export Plug-In . SVG Version: 6.00 Build 0)  -->
<svg version="1.1" id="Capa_1" xmlns="http://www.w3.org/2000/svg" xmlns:xlink="http://www.w3.org/1999/xlink" x="0px" y="0px"
	 viewBox="2834.5 1377.3 8504 5749.6" enable-background="new 2834.5 1377.3 8504 5749.6" xml:space="preserve">
<g>
	<path fill="#454545" d="M4245.7,3924.5c377.2,0,684.1-307,684.1-684.2S4622.9,2556,4245.7,2556c-377.3,0-684.2,307-684.2,684.2
		S3868.5,3924.5,4245.7,3924.5z"/>
	<path fill="#454545" d="M3377.7,5672.4l186.8-358.1v690c0,78.2,63.7,141.9,141.9,141.9h1118.4c78.3,0,141.9-63.7,141.9-141.9
		v-723.1l204.1,391.3c49.8,95.4,147.6,154.7,255.3,154.7l0,0c6.9,0,13.9-0.3,20.8-0.8c39.2-2.8,76.9-13.6,112.1-32
		c68.1-35.5,118.4-95.5,141.4-168.8c23.1-73.3,16.2-151.2-19.4-219.4l-174.7-334.9c1.7-3,3.5-5.9,5.1-9l186.8-358.1v690
		c0,78.2,63.7,141.9,141.9,141.9h1118.4c78.3,0,141.9-63.7,141.9-141.9V4671l204.1,391.3c49.8,95.4,147.6,154.7,255.3,154.7l0,0
		c6.9,0,13.9-0.3,20.8-0.8c39.2-2.8,76.9-13.6,112.1-32c68.1-35.5,118.4-95.5,141.4-168.8c23.1-73.3,16.2-151.2-19.4-219.4
		l-156.2-299.3c0.6-1,1.2-2,1.8-3.1l186.8-358.1v690c0,78.2,63.7,141.9,141.9,141.9h1118.4c78.3,0,141.9-63.7,141.9-141.9v-723.1
		l204.1,391.3c49.8,95.4,147.6,154.7,255.3,154.7l0,0c6.9,0,13.9-0.3,20.8-0.8c39.2-2.8,76.9-13.6,112.1-32
		c68.1-35.5,118.4-95.5,141.4-168.8c23.1-73.3,16.2-151.2-19.4-219.4l-646.4-1239.1c-49.8-95.4-147.6-154.7-255.4-154.7
		c-6.6,0-1020.1,0.4-1021.6,0.4c-120,0-196,62.3-244,154.3l-462.4,886.4L7168,3557c-49.8-95.4-147.6-154.7-255.4-154.7
		c-6.6,0-1020.1,0.4-1021.6,0.4c-111.6,0-196,62.3-244,154.3l-465.6,892.5L5034.7,4167c-49.8-95.4-142.5-154.7-255.4-154.7
		c-6.6,0-1020.1,0.4-1021.6,0.4c-106.1,0-196,62.3-244,154.3l-646.4,1239.2c-35.6,68.2-42.4,146.1-19.4,219.4
		c23.1,73.3,73.3,133.3,141.4,168.8c35.2,18.4,72.9,29.1,112.1,32c7,0.5,13.9,0.8,20.8,0.8
		C3230.1,5827.1,3327.9,5767.8,3377.7,5672.4z"/>
	<path fill="#454545" d="M6379.6,3314.4c377.2,0,684.1-307,684.1-684.2S6756.8,1946,6379.6,1946c-377.3,0-684.2,307-684.2,684.2
		S6002.3,3314.4,6379.6,3314.4z"/>
	<path fill="#454545" d="M8528.6,2745.7c377.2,0,684.1-307,684.1-684.2s-306.9-684.2-684.1-684.2c-377.3,0-684.2,307-684.2,684.2
		S8151.3,2745.7,8528.6,2745.7z"/>
	<path fill="#454545" d="M11302.8,4018.3c-44.9-61.1-125.4-87.7-210.3-67.8l-780.9,183.1c-77.3,18.1-133.4,66.8-153.8,133.7
		c-20.4,66.9-1.1,138.6,52.9,196.8L10359,4624l-1024.8,901.4c-9.7,7.6-37.9,18.9-49,20.2l-1730.8,83c-79.2,3.8-183,33.4-252.3,71.9
		L5435.9,6738.2c-17,9.4-63.4,21.5-82.8,21.5H3445.8c-101.4,0-183.6,82.2-183.6,183.6s82.2,183.6,183.6,183.6h1907.3
		c82.1,0,189.5-27.8,261.2-67.7l1866.2-1037.6c19.6-10.9,69.2-25,91.5-26.1l1730.8-83c91.8-4.4,204-49.8,273-110.5l1033-908.5
		l140.1,151c43,46.3,97.2,71.8,152.7,71.8l0,0c85,0,155.6-56.6,184.3-147.7l240.9-765C11348.5,4134.7,11339.9,4069,11302.8,4018.3z"
		/>
</g>
</svg>
