<?xml version="1.0" encoding="utf-8"?>
<!-- Generator: Adobe Illustrator 18.1.1, SVG Export Plug-In . SVG Version: 6.00 Build 0)  -->
<svg version="1.1" id="Capa_1" xmlns="http://www.w3.org/2000/svg" xmlns:xlink="http://www.w3.org/1999/xlink" x="0px" y="0px"
	 viewBox="-6911 4077.4 349.6 349.6" enable-background="new -6911 4077.4 349.6 349.6" xml:space="preserve">
<g>
	<g>
		<circle fill="#454545" cx="-6871.9" cy="4132.2" r="39.1"/>
		<circle fill="#454545" cx="-6871.9" cy="4252.2" r="39.1"/>
		<circle fill="#454545" cx="-6871.9" cy="4372.2" r="39.1"/>
		<g>
			<path fill="#454545" d="M-6566.4,4097.9h-231c-2.8,0-5,2.2-5,5v58.5c0,2.8,2.2,5,5,5h231c2.8,0,5-2.2,5-5v-58.5
				C-6561.4,4100.1-6563.7,4097.9-6566.4,4097.9z"/>
			<path fill="#454545" d="M-6566.4,4217.9h-231c-2.8,0-5,2.2-5,5v58.5c0,2.8,2.2,5,5,5h231c2.8,0,5-2.2,5-5v-58.5
				C-6561.4,4220.1-6563.7,4217.9-6566.4,4217.9z"/>
			<path fill="#454545" d="M-6566.4,4337.9h-231c-2.8,0-5,2.2-5,5v58.5c0,2.8,2.2,5,5,5h231c2.8,0,5-2.2,5-5v-58.5
				C-6561.4,4340.1-6563.7,4337.9-6566.4,4337.9z"/>
		</g>
	</g>
</g>
</svg>
