<?xml version="1.0" encoding="utf-8"?>
<!-- Generator: Adobe Illustrator 18.1.1, SVG Export Plug-In . SVG Version: 6.00 Build 0)  -->
<svg version="1.1" xmlns="http://www.w3.org/2000/svg" xmlns:xlink="http://www.w3.org/1999/xlink" x="0px" y="0px"
	 viewBox="0 0 50 24.5" enable-background="new 0 0 50 24.5" xml:space="preserve">
<g id="Mini-logo1" display="none">
	<path display="inline" d="M-51.1,52.8c0.5-0.1,1.2-0.2,2-0.2c1,0,1.8,0.2,2.3,0.7c0.4,0.4,0.7,1,0.7,1.7c0,0.7-0.2,1.3-0.6,1.7
		c-0.6,0.6-1.5,0.9-2.5,0.9c-0.3,0-0.6,0-0.8-0.1v3.2h-1V52.8z M-50,56.7c0.2,0.1,0.5,0.1,0.9,0.1c1.3,0,2-0.6,2-1.7
		c0-1.1-0.8-1.6-1.9-1.6c-0.5,0-0.8,0-1,0.1V56.7z"/>
	<path display="inline" d="M-37.7,49.4h-14.7c-0.1,0-0.3,0-0.4,0.1c-1.8,0.5-15.4,6.8-0.7,14.8c0.2,0.1,0.5,0.2,0.8,0.2h15.1
		c0.8,0,1.3-0.5,1.3-1.3V63c0-0.8-0.6-1.4-1.4-1.4h-15.1c-0.3,0-0.6-0.1-0.8-0.3c-1.6-1.1-7.7-5.2,0.7-9c0.2-0.1,0.3-0.1,0.5-0.1
		h14.6c0.8,0,1.4-0.6,1.4-1.4v0C-36.3,50-36.9,49.4-37.7,49.4z"/>
	<rect x="-40.5" y="49.4" display="inline" fill="#FFFFFF" width="1" height="2.8"/>
	<g display="inline">
		<path d="M-42.4,53.8h-2.5v-0.9h6v0.9h-2.5V61h-1.1V53.8z"/>
	</g>
	<rect x="-40.5" y="61.7" display="inline" fill="#FFFFFF" width="1" height="2.8"/>
</g>
<g id="Idea_3" display="none">
	<path display="inline" d="M-59.7,4.1c0.5-0.1,1.2-0.2,2-0.2c1,0,1.8,0.2,2.3,0.7c0.4,0.4,0.7,1,0.7,1.7c0,0.7-0.2,1.3-0.6,1.7
		C-55.9,8.7-56.8,9-57.8,9c-0.3,0-0.6,0-0.8-0.1v3.2h-1V4.1z M-58.7,8c0.2,0.1,0.5,0.1,0.9,0.1c1.3,0,2-0.6,2-1.7
		c0-1.1-0.8-1.6-1.9-1.6c-0.5,0-0.8,0-1,0.1V8z"/>
	<path display="inline" d="M-53.1,9.4c0,1.4,0.9,2,2,2c0.8,0,1.2-0.1,1.6-0.3l0.2,0.8c-0.4,0.2-1,0.4-1.9,0.4
		c-1.8,0-2.9-1.2-2.9-2.9c0-1.8,1-3.1,2.7-3.1c1.9,0,2.4,1.7,2.4,2.7c0,0.2,0,0.4,0,0.5H-53.1z M-50,8.7c0-0.7-0.3-1.7-1.5-1.7
		c-1.1,0-1.5,1-1.6,1.7H-50z"/>
	<path display="inline" d="M-42.4,9.2c0,2.1-1.5,3.1-2.9,3.1c-1.6,0-2.8-1.2-2.8-3c0-1.9,1.3-3.1,2.9-3.1
		C-43.5,6.2-42.4,7.4-42.4,9.2z M-47,9.2c0,1.3,0.7,2.2,1.8,2.2c1,0,1.8-0.9,1.8-2.3c0-1-0.5-2.2-1.7-2.2C-46.4,7-47,8.1-47,9.2z"/>
	<path display="inline" d="M-41,8.2c0-0.7,0-1.3,0-1.9h0.9l0,1h0c0.4-0.7,1.1-1.1,2.1-1.1c1.4,0,2.5,1.2,2.5,3
		c0,2.1-1.3,3.1-2.6,3.1c-0.8,0-1.4-0.3-1.8-0.9h0v3.2h-1V8.2z M-40,9.8c0,0.2,0,0.3,0,0.4c0.2,0.7,0.8,1.2,1.6,1.2
		c1.1,0,1.8-0.9,1.8-2.2c0-1.2-0.6-2.2-1.7-2.2c-0.7,0-1.4,0.5-1.6,1.3c0,0.1-0.1,0.3-0.1,0.4V9.8z"/>
	<path display="inline" d="M-34.2,3.6h1.1v8.5h-1.1V3.6z"/>
	<path display="inline" d="M-30.8,9.4c0,1.4,0.9,2,2,2c0.8,0,1.2-0.1,1.6-0.3l0.2,0.8c-0.4,0.2-1,0.4-1.9,0.4
		c-1.8,0-2.9-1.2-2.9-2.9c0-1.8,1-3.1,2.7-3.1c1.9,0,2.4,1.7,2.4,2.7c0,0.2,0,0.4,0,0.5H-30.8z M-27.7,8.7c0-0.7-0.3-1.7-1.5-1.7
		c-1.1,0-1.5,1-1.6,1.7H-27.7z"/>
	<path display="inline" d="M-53.8,17.4c0-0.7,0-1.3,0-1.8h0.9l0,1.1h0c0.3-0.8,0.9-1.3,1.6-1.3c0.1,0,0.2,0,0.3,0v1
		c-0.1,0-0.2,0-0.4,0c-0.7,0-1.3,0.6-1.4,1.4c0,0.1,0,0.3,0,0.5v3.1h-1V17.4z"/>
	<path display="inline" d="M-46.7,21.4l-0.1-0.7h0c-0.3,0.5-0.9,0.9-1.8,0.9c-1.2,0-1.8-0.8-1.8-1.7c0-1.4,1.2-2.2,3.5-2.2v-0.1
		c0-0.5-0.1-1.3-1.3-1.3c-0.5,0-1.1,0.2-1.5,0.4L-50,16c0.5-0.3,1.2-0.5,1.9-0.5c1.8,0,2.2,1.2,2.2,2.4V20c0,0.5,0,1,0.1,1.4H-46.7z
		 M-46.9,18.4c-1.2,0-2.5,0.2-2.5,1.3c0,0.7,0.5,1,1,1c0.8,0,1.2-0.5,1.4-1c0-0.1,0.1-0.2,0.1-0.3V18.4z"/>
	<path display="inline" d="M-37.4,13.9v1.7h1.5v0.8h-1.5v3.1c0,0.7,0.2,1.1,0.8,1.1c0.3,0,0.5,0,0.6-0.1l0,0.8
		c-0.2,0.1-0.5,0.1-0.9,0.1c-0.5,0-0.9-0.2-1.1-0.4c-0.3-0.3-0.4-0.8-0.4-1.5v-3.2h-0.9v-0.8h0.9v-1.4L-37.4,13.9z"/>
	<path display="inline" d="M-33.5,14c0,0.4-0.3,0.6-0.7,0.6c-0.4,0-0.6-0.3-0.6-0.6c0-0.4,0.3-0.7,0.7-0.7
		C-33.7,13.3-33.5,13.6-33.5,14z M-34.7,21.4v-5.8h1.1v5.8H-34.7z"/>
	<path display="inline" d="M-26.6,18.4c0,2.1-1.5,3.1-2.9,3.1c-1.6,0-2.8-1.2-2.8-3c0-1.9,1.3-3.1,2.9-3.1
		C-27.7,15.5-26.6,16.7-26.6,18.4z M-31.2,18.5c0,1.3,0.7,2.2,1.8,2.2c1,0,1.8-0.9,1.8-2.3c0-1-0.5-2.2-1.7-2.2
		C-30.7,16.2-31.2,17.4-31.2,18.5z"/>
	<path display="inline" d="M-25.3,17.2c0-0.6,0-1.1,0-1.6h0.9l0.1,1h0c0.3-0.6,1-1.1,1.9-1.1c0.8,0,2.1,0.5,2.1,2.5v3.5h-1.1V18
		c0-0.9-0.3-1.7-1.3-1.7c-0.7,0-1.2,0.5-1.4,1.1c0,0.1-0.1,0.3-0.1,0.5v3.5h-1.1V17.2z"/>
	<g display="inline">
		<path d="M-22.8-3.2h-35.8c-0.3,0-0.5,0-0.8,0.1C-63.3-2-93,11.8-60.9,29.2c0.5,0.3,1.1,0.5,1.7,0.5h36.6c1.7,0,2.8-1.1,2.8-2.8
			v-0.3c0-1.7-1.4-3.1-3.1-3.1h-36.6c-0.6,0-1.3-0.2-1.8-0.6c-3.5-2.5-16.7-11.3,1.6-19.7c0.3-0.2,0.7-0.2,1.1-0.2h35.6
			c1.7,0,3.1-1.4,3.1-3.1v0C-19.7-1.8-21.1-3.2-22.8-3.2z"/>
		<rect x="-33.6" y="-3.2" fill="#FFFFFF" width="2.2" height="6.2"/>
		<rect x="-33.6" y="23.5" fill="#FFFFFF" width="2.2" height="6.2"/>
	</g>
	<g display="inline">
		<path d="M-57.2,14.2h-2.5v-0.9h6v0.9h-2.5v7.2h-1.1V14.2z"/>
	</g>
	<g display="inline">
		<path d="M-40.5,21.2c-0.3,0.1-0.9,0.3-1.7,0.3c-1.8,0-2.9-1.2-2.9-3c0-1.8,1.2-3.1,3.1-3.1c0.6,0,1.2,0.2,1.5,0.3l-0.2,0.8
			c-0.3-0.1-0.6-0.3-1.2-0.3c-1.3,0-2.1,1-2.1,2.2c0,1.3,0.9,2.2,2,2.2c0.6,0,1-0.2,1.3-0.3L-40.5,21.2z"/>
	</g>
</g>
<g id="Idea2">
	<path fill="#15748C" d="M0,0.5c0.5-0.1,1.2-0.2,2-0.2c1,0,1.8,0.2,2.3,0.7C4.7,1.4,5,2,5,2.7C5,3.5,4.8,4,4.4,4.5
		C3.8,5,2.9,5.3,1.9,5.3c-0.3,0-0.6,0-0.8-0.1v3.2H0V0.5z M1,4.4c0.2,0.1,0.5,0.1,0.9,0.1c1.3,0,2-0.6,2-1.7c0-1.1-0.8-1.6-1.9-1.6
		c-0.5,0-0.8,0-1,0.1V4.4z"/>
	<path fill="#454546" d="M6.6,5.8c0,1.4,0.9,2,2,2c0.8,0,1.2-0.1,1.6-0.3l0.2,0.8c-0.4,0.2-1,0.4-1.9,0.4c-1.8,0-2.9-1.2-2.9-2.9
		c0-1.8,1-3.1,2.7-3.1c1.9,0,2.4,1.7,2.4,2.7c0,0.2,0,0.4,0,0.5H6.6z M9.7,5c0-0.7-0.3-1.7-1.5-1.7c-1.1,0-1.5,1-1.6,1.7H9.7z"/>
	<path fill="#454546" d="M17.3,5.6c0,2.1-1.5,3.1-2.9,3.1c-1.6,0-2.8-1.2-2.8-3c0-1.9,1.3-3.1,2.9-3.1C16.2,2.6,17.3,3.8,17.3,5.6z
		 M12.7,5.6c0,1.3,0.7,2.2,1.8,2.2c1,0,1.8-0.9,1.8-2.3c0-1-0.5-2.2-1.7-2.2C13.2,3.4,12.7,4.5,12.7,5.6z"/>
	<path fill="#454546" d="M18.6,4.6c0-0.7,0-1.3,0-1.9h0.9l0,1h0c0.4-0.7,1.1-1.1,2.1-1.1c1.4,0,2.5,1.2,2.5,3c0,2.1-1.3,3.1-2.6,3.1
		c-0.8,0-1.4-0.3-1.8-0.9h0v3.2h-1V4.6z M19.7,6.2c0,0.2,0,0.3,0,0.4c0.2,0.7,0.8,1.2,1.6,1.2c1.1,0,1.8-0.9,1.8-2.2
		c0-1.2-0.6-2.2-1.7-2.2c-0.7,0-1.4,0.5-1.6,1.3c0,0.1-0.1,0.3-0.1,0.4V6.2z"/>
	<path fill="#454546" d="M25.5,0h1.1v8.5h-1.1V0z"/>
	<path fill="#454546" d="M28.9,5.8c0,1.4,0.9,2,2,2c0.8,0,1.2-0.1,1.6-0.3l0.2,0.8c-0.4,0.2-1,0.4-1.9,0.4c-1.8,0-2.9-1.2-2.9-2.9
		c0-1.8,1-3.1,2.7-3.1c1.9,0,2.4,1.7,2.4,2.7c0,0.2,0,0.4,0,0.5H28.9z M32,5c0-0.7-0.3-1.7-1.5-1.7c-1.1,0-1.5,1-1.6,1.7H32z"/>
	<path fill="#454546" d="M16.5,16.8c0-0.7,0-1.3,0-1.8h0.9l0,1.1h0c0.3-0.8,0.9-1.3,1.6-1.3c0.1,0,0.2,0,0.3,0v1c-0.1,0-0.2,0-0.4,0
		c-0.7,0-1.3,0.6-1.4,1.4c0,0.1,0,0.3,0,0.5v3.1h-1V16.8z"/>
	<path fill="#454546" d="M23.6,20.8L23.5,20h0c-0.3,0.5-0.9,0.9-1.8,0.9c-1.2,0-1.8-0.8-1.8-1.7c0-1.4,1.2-2.2,3.5-2.2v-0.1
		c0-0.5-0.1-1.3-1.3-1.3c-0.5,0-1.1,0.2-1.5,0.4l-0.2-0.7c0.5-0.3,1.2-0.5,1.9-0.5c1.8,0,2.2,1.2,2.2,2.4v2.2c0,0.5,0,1,0.1,1.4
		H23.6z M23.4,17.8c-1.2,0-2.5,0.2-2.5,1.3c0,0.7,0.5,1,1,1c0.8,0,1.2-0.5,1.4-1c0-0.1,0.1-0.2,0.1-0.3V17.8z"/>
	<path fill="#454546" d="M32.9,13.3V15h1.5v0.8h-1.5v3.1c0,0.7,0.2,1.1,0.8,1.1c0.3,0,0.5,0,0.6-0.1l0,0.8c-0.2,0.1-0.5,0.1-0.9,0.1
		c-0.5,0-0.9-0.2-1.1-0.4c-0.3-0.3-0.4-0.8-0.4-1.5v-3.2H31V15h0.9v-1.4L32.9,13.3z"/>
	<path fill="#454546" d="M36.8,13.3c0,0.4-0.3,0.6-0.7,0.6c-0.4,0-0.6-0.3-0.6-0.6c0-0.4,0.3-0.7,0.7-0.7
		C36.6,12.7,36.8,13,36.8,13.3z M35.6,20.8V15h1.1v5.8H35.6z"/>
	<path fill="#454546" d="M43.7,17.8c0,2.1-1.5,3.1-2.9,3.1c-1.6,0-2.8-1.2-2.8-3c0-1.9,1.3-3.1,2.9-3.1C42.6,14.8,43.7,16,43.7,17.8
		z M39.1,17.9c0,1.3,0.7,2.2,1.8,2.2c1,0,1.8-0.9,1.8-2.3c0-1-0.5-2.2-1.7-2.2C39.6,15.6,39.1,16.8,39.1,17.9z"/>
	<path fill="#454546" d="M45,16.5c0-0.6,0-1.1,0-1.6h0.9l0.1,1h0c0.3-0.6,1-1.1,1.9-1.1c0.8,0,2.1,0.5,2.1,2.5v3.5h-1.1v-3.3
		c0-0.9-0.3-1.7-1.3-1.7c-0.7,0-1.2,0.5-1.4,1.1c0,0.1-0.1,0.3-0.1,0.5v3.5H45V16.5z"/>
	<path fill="#15748C" d="M48.6,9.4H33.8c-0.1,0-0.3,0-0.4,0.1C31.6,10,18,16.3,32.8,24.3c0.2,0.1,0.5,0.2,0.8,0.2h15.1
		c0.8,0,1.3-0.5,1.3-1.3v-0.2c0-0.8-0.6-1.4-1.4-1.4H33.4c-0.3,0-0.6-0.1-0.8-0.3c-1.6-1.1-7.7-5.2,0.7-9c0.2-0.1,0.3-0.1,0.5-0.1
		h14.6c0.8,0,1.4-0.6,1.4-1.4v0C50,10,49.3,9.4,48.6,9.4z"/>
	<rect x="46.3" y="9.4" fill="#FFFFFF" width="1" height="2.8"/>
	<rect x="45.3" y="21.7" fill="#FFFFFF" width="1" height="2.8"/>
	<g>
		<path fill="#15748C" d="M12.1,13.8H9.6v-0.9h6v0.9h-2.5V21h-1.1V13.8z"/>
	</g>
</g>
<g id="Idea1" display="none">
	<path display="inline" d="M-16.6,52.6c0.5-0.1,1.2-0.2,2-0.2c1,0,1.8,0.2,2.3,0.7c0.4,0.4,0.7,1,0.7,1.7c0,0.7-0.2,1.3-0.6,1.7
		c-0.6,0.6-1.5,0.9-2.5,0.9c-0.3,0-0.6,0-0.8-0.1v3.2h-1V52.6z M-15.5,56.5c0.2,0.1,0.5,0.1,0.9,0.1c1.3,0,2-0.6,2-1.7
		c0-1.1-0.8-1.6-1.9-1.6c-0.5,0-0.8,0-1,0.1V56.5z"/>
	<path display="inline" d="M-9.9,57.8c0,1.4,0.9,2,2,2c0.8,0,1.2-0.1,1.6-0.3l0.2,0.8c-0.4,0.2-1,0.4-1.9,0.4
		c-1.8,0-2.9-1.2-2.9-2.9c0-1.8,1-3.1,2.7-3.1c1.9,0,2.4,1.7,2.4,2.7c0,0.2,0,0.4,0,0.5H-9.9z M-6.9,57.1c0-0.7-0.3-1.7-1.5-1.7
		c-1.1,0-1.5,1-1.6,1.7H-6.9z"/>
	<path display="inline" d="M0.7,57.6c0,2.1-1.5,3.1-2.9,3.1c-1.6,0-2.8-1.2-2.8-3c0-1.9,1.3-3.1,2.9-3.1
		C-0.4,54.6,0.7,55.8,0.7,57.6z M-3.9,57.7c0,1.3,0.7,2.2,1.8,2.2c1,0,1.8-0.9,1.8-2.3c0-1-0.5-2.2-1.7-2.2
		C-3.3,55.4-3.9,56.6-3.9,57.7z"/>
	<path display="inline" d="M2.1,56.6c0-0.7,0-1.3,0-1.9H3l0,1h0c0.4-0.7,1.1-1.1,2.1-1.1c1.4,0,2.5,1.2,2.5,3c0,2.1-1.3,3.1-2.6,3.1
		c-0.8,0-1.4-0.3-1.8-0.9h0v3.2h-1V56.6z M3.1,58.2c0,0.2,0,0.3,0,0.4c0.2,0.7,0.8,1.2,1.6,1.2c1.1,0,1.8-0.9,1.8-2.2
		c0-1.2-0.6-2.2-1.7-2.2c-0.7,0-1.4,0.5-1.6,1.3c0,0.1-0.1,0.3-0.1,0.4V58.2z"/>
	<path display="inline" d="M8.9,52h1.1v8.5H8.9V52z"/>
	<path display="inline" d="M12.3,57.8c0,1.4,0.9,2,2,2c0.8,0,1.2-0.1,1.6-0.3l0.2,0.8c-0.4,0.2-1,0.4-1.9,0.4
		c-1.8,0-2.9-1.2-2.9-2.9c0-1.8,1-3.1,2.7-3.1c1.9,0,2.4,1.7,2.4,2.7c0,0.2,0,0.4,0,0.5H12.3z M15.4,57.1c0-0.7-0.3-1.7-1.5-1.7
		c-1.1,0-1.5,1-1.6,1.7H15.4z"/>
	<path display="inline" d="M19,53.1v1.7h1.5v0.8H19v3.1c0,0.7,0.2,1.1,0.8,1.1c0.3,0,0.5,0,0.6-0.1l0,0.8c-0.2,0.1-0.5,0.1-0.9,0.1
		c-0.5,0-0.9-0.2-1.1-0.4c-0.3-0.3-0.4-0.8-0.4-1.5v-3.2h-0.9v-0.8H18v-1.4L19,53.1z"/>
	<path display="inline" d="M21.7,56.6c0-0.7,0-1.3,0-1.8h0.9l0,1.1h0c0.3-0.8,0.9-1.3,1.6-1.3c0.1,0,0.2,0,0.3,0v1
		c-0.1,0-0.2,0-0.4,0c-0.7,0-1.3,0.6-1.4,1.4c0,0.1,0,0.3,0,0.5v3.1h-1V56.6z"/>
	<path display="inline" d="M28.8,60.5l-0.1-0.7h0c-0.3,0.5-0.9,0.9-1.8,0.9c-1.2,0-1.8-0.8-1.8-1.7c0-1.4,1.2-2.2,3.5-2.2v-0.1
		c0-0.5-0.1-1.3-1.3-1.3c-0.5,0-1.1,0.2-1.5,0.4l-0.2-0.7c0.5-0.3,1.2-0.5,1.9-0.5c1.8,0,2.2,1.2,2.2,2.4v2.2c0,0.5,0,1,0.1,1.4
		H28.8z M28.6,57.6c-1.2,0-2.5,0.2-2.5,1.3c0,0.7,0.5,1,1,1c0.8,0,1.2-0.5,1.4-1c0-0.1,0.1-0.2,0.1-0.3V57.6z"/>
	<path display="inline" d="M38.2,53.1v1.7h1.5v0.8h-1.5v3.1c0,0.7,0.2,1.1,0.8,1.1c0.3,0,0.5,0,0.6-0.1l0,0.8
		c-0.2,0.1-0.5,0.1-0.9,0.1c-0.5,0-0.9-0.2-1.1-0.4c-0.3-0.3-0.4-0.8-0.4-1.5v-3.2h-0.9v-0.8h0.9v-1.4L38.2,53.1z"/>
	<path display="inline" d="M42,53.1c0,0.4-0.3,0.6-0.7,0.6c-0.4,0-0.6-0.3-0.6-0.6c0-0.4,0.3-0.7,0.7-0.7C41.8,52.4,42,52.7,42,53.1
		z M40.9,60.5v-5.8h1.1v5.8H40.9z"/>
	<path display="inline" d="M48.9,57.6c0,2.1-1.5,3.1-2.9,3.1c-1.6,0-2.8-1.2-2.8-3c0-1.9,1.3-3.1,2.9-3.1
		C47.8,54.6,48.9,55.8,48.9,57.6z M44.3,57.7c0,1.3,0.7,2.2,1.8,2.2c1,0,1.8-0.9,1.8-2.3c0-1-0.5-2.2-1.7-2.2
		C44.9,55.4,44.3,56.6,44.3,57.7z"/>
	<path display="inline" d="M50.3,56.3c0-0.6,0-1.1,0-1.6h0.9l0.1,1h0c0.3-0.6,1-1.1,1.9-1.1c0.8,0,2.1,0.5,2.1,2.5v3.5h-1.1v-3.3
		c0-0.9-0.3-1.7-1.3-1.7c-0.7,0-1.2,0.5-1.4,1.1c0,0.1-0.1,0.3-0.1,0.5v3.5h-1.1V56.3z"/>
	<path display="inline" d="M53.8,49.2H39.1c-0.1,0-0.3,0-0.4,0.1C36.9,49.7,23.2,56.1,38,64c0.2,0.1,0.5,0.2,0.8,0.2h15.1
		c0.8,0,1.3-0.5,1.3-1.3v-0.2c0-0.8-0.6-1.4-1.4-1.4H38.7c-0.3,0-0.6-0.1-0.8-0.3c-1.6-1.1-7.7-5.2,0.7-9c0.2-0.1,0.3-0.1,0.5-0.1
		h14.6c0.8,0,1.4-0.6,1.4-1.4v0C55.2,49.8,54.6,49.2,53.8,49.2z"/>
	<rect x="50.5" y="49.2" display="inline" fill="#FFFFFF" width="1" height="2.8"/>
	<rect x="50.5" y="61.4" display="inline" fill="#FFFFFF" width="1" height="2.8"/>
</g>
</svg>
