<?xml version="1.0" encoding="utf-8"?>
<!-- Generator: Adobe Illustrator 18.1.1, SVG Export Plug-In . SVG Version: 6.00 Build 0)  -->
<svg version="1.1" id="Layer_1" xmlns="http://www.w3.org/2000/svg" xmlns:xlink="http://www.w3.org/1999/xlink" x="0px" y="0px"
	 viewBox="0 0 14173.2 8503.9" enable-background="new 0 0 14173.2 8503.9" xml:space="preserve">
<g id="Mini-logo1" display="none">
	<path display="inline" d="M-14485,15746.5c141.7-28.3,340.2-56.7,566.9-56.7c283.5,0,510.2,56.7,652,198.4
		c113.4,113.4,198.4,283.5,198.4,481.9s-56.7,368.5-170.1,481.9c-170.1,170.1-425.2,255.1-708.7,255.1c-85,0-170.1,0-226.8-28.3
		v907.1h-283.5v-2239.4H-14485z M-14173.2,16852c56.7,28.3,141.7,28.3,255.1,28.3c368.5,0,566.9-170.1,566.9-481.9
		s-226.8-453.5-538.6-453.5c-141.7,0-226.8,0-283.5,28.3V16852z"/>
	<path display="inline" d="M-10686.6,14782.7h-4166.9c-28.3,0-85,0-113.4,28.3c-510.2,141.7-4365.4,1927.6-198.4,4195.3
		c56.7,28.3,141.7,56.7,226.8,56.7h4280.3c226.8,0,368.5-141.7,368.5-368.5v-56.7c0-226.8-170.1-396.9-396.9-396.9h-4280.3
		c-85,0-170.1-28.3-226.8-85c-453.5-311.8-2182.7-1474,198.4-2551.2c56.7-28.3,85-28.3,141.7-28.3h4138.6
		c226.8,0,396.9-170.1,396.9-396.9l0,0C-10289.8,14952.8-10459.8,14782.7-10686.6,14782.7z"/>
	<rect x="-11480.3" y="14782.7" display="inline" fill="#FFFFFF" width="283.5" height="793.7"/>
	<g display="inline">
		<path d="M-12018.9,16029.9h-708.7v-255.1h1700.8v255.1h-708.7v2040.9h-311.8v-2040.9H-12018.9z"/>
	</g>
	<rect x="-11480.3" y="18269.3" display="inline" fill="#FFFFFF" width="283.5" height="793.7"/>
</g>
<g id="Idea_3" display="none">
	<path display="inline" d="M-16922.8,1941.7c141.7-28.3,340.2-56.7,566.9-56.7c283.5,0,510.2,56.7,652,198.4
		c113.4,113.4,198.4,283.5,198.4,481.9c0,198.4-56.7,368.5-170.1,481.9c-170.1,198.4-425.2,283.5-708.7,283.5
		c-85,0-170.1,0-226.8-28.3v907.1h-283.5V1941.7H-16922.8z M-16639.4,3047.2c56.7,28.3,141.7,28.3,255.1,28.3
		c368.5,0,566.9-170.1,566.9-481.9s-226.8-453.5-538.6-453.5c-141.7,0-226.8,0-283.5,28.3V3047.2z"/>
	<path display="inline" d="M-15052,3444.1c0,396.9,255.1,566.9,566.9,566.9c226.8,0,340.2-28.3,453.5-85l56.7,226.8
		c-113.4,56.7-283.5,113.4-538.6,113.4c-510.2,0-822-340.2-822-822c0-510.2,283.5-878.7,765.4-878.7
		c538.6,0,680.3,481.9,680.3,765.4c0,56.7,0,113.4,0,141.7H-15052V3444.1z M-14173.2,3245.7c0-198.4-85-481.9-425.2-481.9
		c-311.8,0-425.2,283.5-453.5,481.9H-14173.2z"/>
	<path display="inline" d="M-12018.9,3387.4c0,595.3-425.2,878.7-822,878.7c-453.5,0-793.7-340.2-793.7-850.4
		c0-538.6,368.5-878.7,822-878.7C-12330.7,2537-12018.9,2877.2-12018.9,3387.4z M-13322.8,3387.4c0,368.5,198.4,623.6,510.2,623.6
		c283.5,0,510.2-255.1,510.2-652c0-283.5-141.7-623.6-481.9-623.6C-13152.8,2763.8-13322.8,3075.6-13322.8,3387.4z"/>
	<path display="inline" d="M-11622,3103.9c0-198.4,0-368.5,0-538.6h255.1v283.5l0,0c113.4-198.4,311.8-311.8,595.3-311.8
		c396.9,0,708.7,340.2,708.7,850.4c0,595.3-368.5,878.7-737,878.7c-226.8,0-396.9-85-510.2-255.1l0,0v907.1h-283.5V3103.9H-11622z
		 M-11338.6,3557.5c0,56.7,0,85,0,113.4c56.7,198.4,226.8,340.2,453.5,340.2c311.8,0,510.2-255.1,510.2-623.6
		c0-340.2-170.1-623.6-481.9-623.6c-198.4,0-396.9,141.7-453.5,368.5c0,28.3-28.3,85-28.3,113.4V3557.5z"/>
	<path display="inline" d="M-9694.5,1800h311.8v2409.4h-311.8V1800z"/>
	<path display="inline" d="M-8730.7,3444.1c0,396.9,255.1,566.9,566.9,566.9c226.8,0,340.2-28.3,453.5-85l56.7,226.8
		c-113.4,56.7-283.5,113.4-538.6,113.4c-510.2,0-822-340.2-822-822c0-510.2,283.5-878.7,765.4-878.7
		c538.6,0,680.3,481.9,680.3,765.4c0,56.7,0,113.4,0,141.7h-1162.2V3444.1z M-7852,3245.7c0-198.4-85-481.9-425.2-481.9
		c-311.8,0-425.2,283.5-453.5,481.9H-7852z"/>
	<path display="inline" d="M-15250.4,5711.8c0-198.4,0-368.5,0-510.2h255.1v311.8l0,0c85-226.8,255.1-368.5,453.5-368.5
		c28.3,0,56.7,0,85,0v283.5c-28.3,0-56.7,0-113.4,0c-198.4,0-368.5,170.1-396.9,396.9c0,28.3,0,85,0,141.7v878.7h-283.5
		L-15250.4,5711.8L-15250.4,5711.8z"/>
	<path display="inline" d="M-13237.8,6845.7l-28.3-198.4l0,0c-85,141.7-255.1,255.1-510.2,255.1c-340.2,0-510.2-226.8-510.2-481.9
		c0-396.9,340.2-623.6,992.1-623.6v-28.3c0-141.7-28.3-368.5-368.5-368.5c-141.7,0-311.8,56.7-425.2,113.4l-85-198.4
		c141.7-85,340.2-141.7,538.6-141.7c510.2,0,623.6,340.2,623.6,680.3v595.3c0,141.7,0,283.5,28.3,396.9H-13237.8z M-13294.5,5995.3
		c-340.2,0-708.7,56.7-708.7,368.5c0,198.4,141.7,283.5,283.5,283.5c226.8,0,340.2-141.7,396.9-283.5c0-28.3,28.3-56.7,28.3-85
		V5995.3z"/>
	<path display="inline" d="M-10601.6,4719.7v481.9h425.2v226.8h-425.2v878.7c0,198.4,56.7,311.8,226.8,311.8
		c85,0,141.7,0,170.1-28.3v226.8c-56.7,28.3-141.7,28.3-255.1,28.3c-141.7,0-255.1-56.7-311.8-113.4c-85-85-113.4-226.8-113.4-425.2
		V5400h-255.1v-226.8h255.1v-396.9L-10601.6,4719.7z"/>
	<path display="inline" d="M-9496.1,4748c0,113.4-85,170.1-198.4,170.1c-113.4,0-170.1-85-170.1-170.1c0-113.4,85-198.4,198.4-198.4
		S-9496.1,4634.6-9496.1,4748z M-9836.2,6845.7V5201.6h311.8v1644.1H-9836.2z"/>
	<path display="inline" d="M-7540.2,5995.3c0,595.3-425.2,878.7-822,878.7c-453.5,0-793.7-340.2-793.7-850.4
		c0-538.6,368.5-878.7,822-878.7C-7852,5173.2-7540.2,5513.4-7540.2,5995.3z M-8844.1,6023.6c0,368.5,198.4,623.6,510.2,623.6
		c283.5,0,510.2-255.1,510.2-652c0-283.5-141.7-623.6-481.9-623.6C-8702.4,5371.7-8844.1,5711.8-8844.1,6023.6z"/>
	<path display="inline" d="M-7171.7,5655.1c0-170.1,0-311.8,0-453.5h255.1l28.3,283.5l0,0c85-170.1,283.5-311.8,538.6-311.8
		c226.8,0,595.3,141.7,595.3,708.7V6874h-311.8v-992.1c0-255.1-85-481.9-368.5-481.9c-198.4,0-340.2,141.7-396.9,311.8
		c0,28.3-28.3,85-28.3,141.7v992.1h-311.8V5655.1z"/>
	<g display="inline">
		<path d="M-6463-127.6h-10148c-85,0-141.7,0-226.8,28.3c-1105.5,311.8-9524.4,4223.6-425.2,9155.9
			c141.7,85,311.8,141.7,481.9,141.7h10374.8c481.9,0,793.7-311.8,793.7-793.7v-85c0-481.9-396.9-878.7-878.7-878.7h-10374.8
			c-170.1,0-368.5-56.7-510.2-170.1c-992.1-708.7-4733.9-3203.2,453.5-5584.3c85-56.7,198.4-56.7,311.8-56.7h10091.3
			c481.9,0,878.7-396.9,878.7-878.7l0,0C-5584.3,269.3-5981.1-127.6-6463-127.6z"/>
		<rect x="-9524.4" y="-127.6" fill="#FFFFFF" width="623.6" height="1757.5"/>
		<rect x="-9524.4" y="7440.9" fill="#FFFFFF" width="623.6" height="1757.5"/>
	</g>
	<g display="inline">
		<path d="M-16214.2,4804.7h-708.7v-255.1h1700.8v255.1h-708.7v2040.9h-311.8V4804.7H-16214.2z"/>
	</g>
	<g display="inline">
		<path d="M-11480.3,6789c-85,28.3-255.1,85-481.9,85c-510.2,0-822-340.2-822-850.4s340.2-878.7,878.7-878.7
			c170.1,0,340.2,56.7,425.2,85l-56.7,226.8c-85-28.3-170.1-85-340.2-85c-368.5,0-595.3,283.5-595.3,623.6
			c0,368.5,255.1,623.6,566.9,623.6c170.1,0,283.5-56.7,368.5-85L-11480.3,6789z"/>
	</g>
</g>
<g id="Idea2">
	<path fill="#15748C" d="M0,921.3c141.7-28.3,340.2-56.7,566.9-56.7c283.5,0,510.2,56.7,652,198.4
		c113.4,113.4,198.4,283.5,198.4,481.9c0,226.8-56.7,368.5-170.1,510.2c-170.1,141.7-425.2,226.8-708.7,226.8
		c-85,0-170.1,0-226.8-28.3v907.1H0V921.3z M283.5,2026.8c56.7,28.3,141.7,28.3,255.1,28.3c368.5,0,566.9-170.1,566.9-481.9
		s-226.8-453.5-538.6-453.5c-141.7,0-226.8,0-283.5,28.3V2026.8z"/>
	<path fill="#454546" d="M1870.9,2423.6c0,396.9,255.1,566.9,566.9,566.9c226.8,0,340.2-28.3,453.5-85l56.7,226.8
		c-113.4,56.7-283.5,113.4-538.6,113.4c-510.2,0-822-340.2-822-822c0-510.2,283.5-878.7,765.4-878.7
		c538.6,0,680.3,481.9,680.3,765.4c0,56.7,0,113.4,0,141.7H1870.9V2423.6z M2749.6,2196.9c0-198.4-85-481.9-425.2-481.9
		c-311.8,0-425.2,283.5-453.5,481.9H2749.6z"/>
	<path fill="#454546" d="M4903.9,2366.9c0,595.3-425.2,878.7-822,878.7c-453.5,0-793.7-340.2-793.7-850.4
		c0-538.6,368.5-878.7,822-878.7C4592.1,1516.5,4903.9,1856.7,4903.9,2366.9z M3600,2366.9c0,368.5,198.4,623.6,510.2,623.6
		c283.5,0,510.2-255.1,510.2-652c0-283.5-141.7-623.6-481.9-623.6C3741.7,1743.3,3600,2055.1,3600,2366.9z"/>
	<path fill="#454546" d="M5272.4,2083.5c0-198.4,0-368.5,0-538.6h255.1v283.5l0,0c113.4-198.4,311.8-311.8,595.3-311.8
		c396.9,0,708.7,340.2,708.7,850.4c0,595.3-368.5,878.7-737,878.7c-226.8,0-396.9-85-510.2-255.1l0,0v907.1h-283.5V2083.5H5272.4z
		 M5584.3,2537c0,56.7,0,85,0,113.4c56.7,198.4,226.8,340.2,453.5,340.2c311.8,0,510.2-255.1,510.2-623.6
		c0-340.2-170.1-623.6-481.9-623.6c-198.4,0-396.9,141.7-453.5,368.5c0,28.3-28.3,85-28.3,113.4L5584.3,2537L5584.3,2537z"/>
	<path fill="#454546" d="M7228.3,779.5h311.8V3189h-311.8V779.5z"/>
	<path fill="#454546" d="M8192.1,2423.6c0,396.9,255.1,566.9,566.9,566.9c226.8,0,340.2-28.3,453.5-85l56.7,226.8
		c-113.4,56.7-283.5,113.4-538.6,113.4c-510.2,0-822-340.2-822-822c0-510.2,283.5-878.7,765.4-878.7
		c538.6,0,680.3,481.9,680.3,765.4c0,56.7,0,113.4,0,141.7H8192.1V2423.6z M9070.9,2196.9c0-198.4-85-481.9-425.2-481.9
		c-311.8,0-425.2,283.5-453.5,481.9H9070.9z"/>
	<path fill="#454546" d="M4677.2,5541.7c0-198.4,0-368.5,0-510.2h255.1v311.8l0,0c85-226.8,255.1-368.5,453.5-368.5
		c28.3,0,56.7,0,85,0v283.5c-28.3,0-56.7,0-113.4,0c-198.4,0-368.5,170.1-396.9,396.9c0,28.3,0,85,0,141.7v878.7h-283.5V5541.7z"/>
	<path fill="#454546" d="M6689.8,6675.6l-28.3-226.8l0,0c-85,141.7-255.1,255.1-510.2,255.1c-340.2,0-510.2-226.8-510.2-481.9
		c0-396.9,340.2-623.6,992.1-623.6v-28.3c0-141.7-28.3-368.5-368.5-368.5c-141.7,0-311.8,56.7-425.2,113.4l-56.7-198.4
		c141.7-85,340.2-141.7,538.6-141.7c510.2,0,623.6,340.2,623.6,680.3v623.6c0,141.7,0,283.5,28.3,396.9L6689.8,6675.6L6689.8,6675.6
		z M6633.1,5825.2c-340.2,0-708.7,56.7-708.7,368.5c0,198.4,141.7,283.5,283.5,283.5c226.8,0,340.2-141.7,396.9-283.5
		c0-28.3,28.3-56.7,28.3-85V5825.2z"/>
	<path fill="#454546" d="M9326,4549.6v481.9h425.2v226.8H9326V6137c0,198.4,56.7,311.8,226.8,311.8c85,0,141.7,0,170.1-28.3v226.8
		c-56.7,28.3-141.7,28.3-255.1,28.3c-141.7,0-255.1-56.7-311.8-113.4c-85-85-113.4-226.8-113.4-425.2v-907.1h-255.1v-198.4h255.1
		v-396.9L9326,4549.6z"/>
	<path fill="#454546" d="M10431.5,4549.6c0,113.4-85,170.1-198.4,170.1c-113.4,0-170.1-85-170.1-170.1c0-113.4,85-198.4,198.4-198.4
		C10374.8,4379.5,10431.5,4464.6,10431.5,4549.6z M10091.3,6675.6V5031.5h311.8v1644.1H10091.3z"/>
	<path fill="#454546" d="M12387.4,5825.2c0,595.3-425.2,878.7-822,878.7c-453.5,0-793.7-340.2-793.7-850.4
		c0-538.6,368.5-878.7,822-878.7C12075.6,4974.8,12387.4,5315,12387.4,5825.2z M11083.5,5853.5c0,368.5,198.4,623.6,510.2,623.6
		c283.5,0,510.2-255.1,510.2-652c0-283.5-141.7-623.6-481.9-623.6C11225.2,5201.6,11083.5,5541.7,11083.5,5853.5z"/>
	<path fill="#454546" d="M12755.9,5456.7c0-170.1,0-311.8,0-453.5h255.1l28.3,283.5l0,0c85-170.1,283.5-311.8,538.6-311.8
		c226.8,0,595.3,141.7,595.3,708.7v992.1h-311.8v-935.4c0-255.1-85-481.9-368.5-481.9c-198.4,0-340.2,141.7-396.9,311.8
		c0,28.3-28.3,85-28.3,141.7v992.1h-311.8V5456.7z"/>
	<path fill="#15748C" d="M13776.4,3444.1H9581.1c-28.3,0-85,0-113.4,28.3c-510.2,141.7-4365.4,1927.6-170.1,4195.3
		c56.7,28.3,141.7,56.7,226.8,56.7h4280.3c226.8,0,368.5-141.7,368.5-368.5v-56.7c0-226.8-170.1-396.9-396.9-396.9H9467.7
		c-85,0-170.1-28.3-226.8-85c-453.5-311.8-2182.7-1474,198.4-2551.2c56.7-28.3,85-28.3,141.7-28.3h4138.6
		c226.8,0,396.9-170.1,396.9-396.9l0,0C14173.2,3614.2,13974.8,3444.1,13776.4,3444.1z"/>
	<rect x="13124.4" y="3444.1" fill="#FFFFFF" width="283.5" height="793.7"/>
	<rect x="12840.9" y="6930.7" fill="#FFFFFF" width="283.5" height="793.7"/>
	<g>
		<path fill="#15748C" d="M3429.9,4691.3h-708.7v-255.1H4422v255.1h-708.7v2040.9h-311.8V4691.3H3429.9z"/>
	</g>
</g>
<g id="Idea1" display="none">
	<path display="inline" d="M-4705.5,15689.8c141.7-28.3,340.2-56.7,566.9-56.7c283.5,0,510.2,56.7,652,198.4
		c113.4,113.4,198.4,283.5,198.4,481.9s-56.7,368.5-170.1,481.9c-170.1,170.1-425.2,255.1-708.7,255.1c-85,0-170.1,0-226.8-28.3
		v907.1h-283.5v-2239.4H-4705.5z M-4393.7,16795.3c56.7,28.3,141.7,28.3,255.1,28.3c368.5,0,566.9-170.1,566.9-481.9
		c0-311.8-226.8-453.5-538.6-453.5c-141.7,0-226.8,0-283.5,28.3V16795.3z"/>
	<path display="inline" d="M-2806.3,17163.8c0,396.9,255.1,566.9,566.9,566.9c226.8,0,340.2-28.3,453.5-85l56.7,226.8
		c-113.4,56.7-283.5,113.4-538.6,113.4c-510.2,0-822-340.2-822-822c0-510.2,283.5-878.7,765.4-878.7
		c538.6,0,680.3,481.9,680.3,765.4c0,56.7,0,113.4,0,141.7h-1162.2V17163.8z M-1955.9,16965.4c0-198.4-85-481.9-425.2-481.9
		c-311.8,0-425.2,283.5-453.5,481.9H-1955.9z"/>
	<path display="inline" d="M198.4,17107.1c0,595.3-425.2,878.7-822,878.7c-453.5,0-793.7-340.2-793.7-850.4
		c0-538.6,368.5-878.7,822-878.7C-113.4,16256.7,198.4,16596.9,198.4,17107.1z M-1105.5,17135.4c0,368.5,198.4,623.6,510.2,623.6
		c283.5,0,510.2-255.1,510.2-652c0-283.5-141.7-623.6-481.9-623.6C-935.4,16483.5-1105.5,16823.6-1105.5,17135.4z"/>
	<path display="inline" d="M595.3,16823.6c0-198.4,0-368.5,0-538.6h255.1v283.5l0,0c113.4-198.4,311.8-311.8,595.3-311.8
		c396.9,0,708.7,340.2,708.7,850.4c0,595.3-368.5,878.7-737,878.7c-226.8,0-396.9-85-510.2-255.1l0,0v907.1H623.6v-1814.2H595.3z
		 M878.7,17277.2c0,56.7,0,85,0,113.4c56.7,198.4,226.8,340.2,453.5,340.2c311.8,0,510.2-255.1,510.2-623.6
		c0-340.2-170.1-623.6-481.9-623.6c-198.4,0-396.9,141.7-453.5,368.5c0,28.3-28.3,85-28.3,113.4L878.7,17277.2L878.7,17277.2z"/>
	<path display="inline" d="M2522.8,15519.7h311.8v2409.4h-311.8V15519.7z"/>
	<path display="inline" d="M3486.6,17163.8c0,396.9,255.1,566.9,566.9,566.9c226.8,0,340.2-28.3,453.5-85l56.7,226.8
		c-113.4,56.7-283.5,113.4-538.6,113.4c-510.2,0-822-340.2-822-822c0-510.2,283.5-878.7,765.4-878.7
		c538.6,0,680.3,481.9,680.3,765.4c0,56.7,0,113.4,0,141.7H3486.6V17163.8z M4365.4,16965.4c0-198.4-85-481.9-425.2-481.9
		c-311.8,0-425.2,283.5-453.5,481.9H4365.4z"/>
	<path display="inline" d="M5385.8,15831.5v481.9H5811v226.8h-425.2v878.7c0,198.4,56.7,311.8,226.8,311.8c85,0,141.7,0,170.1-28.3
		v226.8c-56.7,28.3-141.7,28.3-255.1,28.3c-141.7,0-255.1-56.7-311.8-113.4c-85-85-113.4-226.8-113.4-425.2v-907.1h-255.1V16285
		h255.1v-396.9L5385.8,15831.5z"/>
	<path display="inline" d="M6151.2,16823.6c0-198.4,0-368.5,0-510.2h255.1v311.8l0,0c85-226.8,255.1-368.5,453.5-368.5
		c28.3,0,56.7,0,85,0v283.5c-28.3,0-56.7,0-113.4,0c-198.4,0-368.5,170.1-396.9,396.8c0,28.3,0,85,0,141.7v878.7h-283.5V16823.6z"/>
	<path display="inline" d="M8163.8,17929.1l-28.3-198.4l0,0c-85,141.7-255.1,255.1-510.2,255.1c-340.2,0-510.2-226.8-510.2-481.9
		c0-396.8,340.2-623.6,992.1-623.6v-28.3c0-141.7-28.3-368.5-368.5-368.5c-141.7,0-311.8,56.7-425.2,113.4l-56.7-198.4
		c141.7-85,340.2-141.7,538.6-141.7c510.2,0,623.6,340.2,623.6,680.3v623.6c0,141.7,0,283.5,28.3,396.8h-283.5V17929.1z
		 M8107.1,17107.1c-340.2,0-708.7,56.7-708.7,368.5c0,198.4,141.7,283.5,283.5,283.5c226.8,0,340.2-141.7,396.9-283.5
		c0-28.3,28.3-56.7,28.3-85V17107.1z"/>
	<path display="inline" d="M10828.3,15831.5v481.9h425.2v226.8h-425.2v878.7c0,198.4,56.7,311.8,226.8,311.8
		c85,0,141.7,0,170.1-28.3v226.8c-56.7,28.3-141.7,28.3-255.1,28.3c-141.7,0-255.1-56.7-311.8-113.4c-85-85-113.4-226.8-113.4-425.2
		v-907.1h-255.1V16285h255.1v-396.9L10828.3,15831.5z"/>
	<path display="inline" d="M11905.5,15831.5c0,113.4-85,170.1-198.4,170.1c-113.4,0-170.1-85-170.1-170.1
		c0-113.4,85-198.4,198.4-198.4C11848.8,15633.1,11905.5,15718.1,11905.5,15831.5z M11593.7,17929.1V16285h311.8v1644.1H11593.7z"/>
	<path display="inline" d="M13861.4,17107.1c0,595.3-425.2,878.7-822,878.7c-453.5,0-793.7-340.2-793.7-850.4
		c0-538.6,368.5-878.7,822-878.7C13549.6,16256.7,13861.4,16596.9,13861.4,17107.1z M12557.5,17135.4
		c0,368.5,198.4,623.6,510.2,623.6c283.5,0,510.2-255.1,510.2-652c0-283.5-141.7-623.6-481.9-623.6
		C12727.6,16483.5,12557.5,16823.6,12557.5,17135.4z"/>
	<path display="inline" d="M14258.3,16738.6c0-170.1,0-311.8,0-453.5h255.1l28.3,283.5l0,0c85-170.1,283.5-311.8,538.6-311.8
		c226.8,0,595.3,141.7,595.3,708.7v992.1h-311.8v-935.4c0-255.1-85-481.9-368.5-481.9c-198.4,0-340.2,141.7-396.9,311.8
		c0,28.3-28.3,85-28.3,141.7v992.1h-311.8L14258.3,16738.6L14258.3,16738.6z"/>
	<path display="inline" d="M15250.4,14726h-4166.9c-28.3,0-85,0-113.4,28.3c-510.2,113.4-4393.7,1927.6-198.4,4166.9
		c56.7,28.3,141.7,56.7,226.8,56.7h4280.3c226.8,0,368.5-141.7,368.5-368.5v-56.7c0-226.8-170.1-396.9-396.9-396.9h-4280.3
		c-85,0-170.1-28.3-226.8-85c-453.5-311.8-2182.7-1474,198.4-2551.2c56.7-28.3,85-28.3,141.7-28.3h4138.6
		c226.8,0,396.9-170.1,396.9-396.9l0,0C15647.2,14896.1,15477.2,14726,15250.4,14726z"/>
	<rect x="14315" y="14726" display="inline" fill="#FFFFFF" width="283.5" height="793.7"/>
	<rect x="14315" y="18184.3" display="inline" fill="#FFFFFF" width="283.5" height="793.7"/>
</g>
</svg>
