<?xml version="1.0" encoding="utf-8"?>
<!-- Generator: Adobe Illustrator 18.1.1, SVG Export Plug-In . SVG Version: 6.00 Build 0)  -->
<svg version="1.1" id="Capa_1" xmlns="http://www.w3.org/2000/svg" xmlns:xlink="http://www.w3.org/1999/xlink" x="0px" y="0px"
	 viewBox="-7063 4228.9 46 46" enable-background="new -7063 4228.9 46 46" xml:space="preserve">
<g>
	<g>
		<path fill="#454545" d="M-7027.2,4228.9h-25.6c-5.6,0-10.2,4.6-10.2,10.2v25.6c0,5.6,4.6,10.2,10.2,10.2h25.6
			c5.6,0,10.2-4.6,10.2-10.2v-25.6C-7017,4233.5-7021.6,4228.9-7027.2,4228.9z M-7023,4264.8c0,2.3-1.9,4.2-4.2,4.2h-25.6
			c-2.3,0-4.2-1.9-4.2-4.2v-25.6c0-2.3,1.9-4.2,4.2-4.2h25.6c2.3,0,4.2,1.9,4.2,4.2V4264.8z"/>
		<g>
			<path fill="#454545" d="M-7041.1,4262.2c-0.6,0.6-1.4,1-2.3,1s-1.7-0.3-2.3-1l-7.1-7.1c-1.3-1.3-1.3-3.3,0-4.6
				c1.3-1.3,3.3-1.3,4.6,0l4.2,4.2c0.3,0.3,0.8,0.3,1.2,0l11.5-11.5c1.3-1.3,3.3-1.3,4.6,0s1.3,3.3,0,4.6L-7041.1,4262.2z"/>
		</g>
	</g>
</g>
</svg>
